<svg width="49" height="49" viewBox="0 0 49 49" fill="none" xmlns="http://www.w3.org/2000/svg">
<path fill-rule="evenodd" clip-rule="evenodd" d="M35.7225 41.2089C35.1523 41.0174 34.6174 40.6967 34.1665 40.2423L31.1693 37.2221L30.3206 36.3669L29.4718 37.2221L28.2694 38.4338L27.1245 39.5875L25.0513 41.6766L26.9742 43.6144L27.8495 44.4964L28.8972 45.5521C30.3957 47.0622 32.2126 48.0644 34.1311 48.5589C34.5201 48.6613 34.918 48.7415 35.3158 48.7994C38.7948 49.3161 42.4728 48.2337 45.1339 45.5521C47.7995 42.866 48.8737 39.1643 48.3565 35.6586C48.2991 35.2577 48.2195 34.8612 48.1178 34.4648C47.6227 32.5271 46.6281 30.6963 45.1339 29.1906L44.0863 28.1349C39.4977 23.5111 34.9091 18.8873 30.3206 14.2635L28.2694 16.3304L27.1245 17.4842L25.0513 19.5733C29.9581 24.5178 34.9224 29.5203 39.8646 34.5004C40.3155 34.9548 40.6338 35.4938 40.8239 36.0684C40.9477 36.4426 41.014 36.8301 41.0316 37.2221C41.0714 38.3135 40.6824 39.4182 39.869 40.2423C39.0556 41.0619 37.9549 41.4539 36.8719 41.4138C36.4829 41.4005 36.0983 41.3292 35.727 41.2045L35.7225 41.2089Z" fill="#23CAD7"/>
<path fill-rule="evenodd" clip-rule="evenodd" d="M17.3109 37.2221L14.3138 40.2423C13.8629 40.6966 13.328 41.0174 12.7578 41.2089C12.3864 41.3336 12.0018 41.4004 11.6128 41.4183C10.5298 41.4584 9.43348 41.0664 8.61568 40.2467C7.80229 39.4271 7.41328 38.3179 7.45307 37.2266C7.46633 36.8346 7.53706 36.447 7.66083 36.0728C8.1471 34.6029 10.4856 32.625 11.6172 31.4847L12.466 30.6294L11.6172 29.7742L10.4148 28.5625L9.26992 27.4088L7.19667 25.3196C4.49128 28.0458 1.34825 30.6027 0.366886 34.4692C0.265213 34.8612 0.185642 35.2621 0.128175 35.663C-0.384612 39.1687 0.689588 42.8749 3.35077 45.5565C6.01638 48.2426 9.68988 49.325 13.1689 48.8039C13.5667 48.7459 13.9602 48.6658 14.3536 48.5633C16.2765 48.0644 18.0934 47.0621 19.5875 45.5565L20.6352 44.5008L21.5105 43.6188C25.8073 39.289 30.1041 34.9592 34.4009 30.6294L32.3497 28.5625L31.2048 27.4088L29.1316 25.3196L28.274 26.1838C24.6579 29.8276 20.9712 33.5427 17.3154 37.2266L17.3109 37.2221Z" fill="black"/>
<path fill-rule="evenodd" clip-rule="evenodd" d="M34.1666 8.75773C34.6175 8.30337 35.1524 7.98264 35.7227 7.7911C36.094 7.66637 36.4786 7.59955 36.8676 7.58174C37.9507 7.54164 39.047 7.93364 39.8648 8.75327C40.6782 9.5729 41.0672 10.6821 41.0274 11.7734C41.0141 12.1654 40.9434 12.553 40.8196 12.9272C40.6295 13.5018 40.3112 14.0408 39.8603 14.4951L36.8632 17.5153L36.0144 18.3706C37.7694 20.139 39.5288 21.9119 41.2838 23.6804C42.5657 22.3885 43.8477 21.0967 45.1297 19.8049C46.6282 18.2948 47.6229 16.464 48.1136 14.5308C48.2152 14.1388 48.2948 13.7379 48.3523 13.337C48.8651 9.83127 47.7909 6.12511 45.1297 3.44349C42.4685 0.761869 38.795 -0.320578 35.316 0.196146C34.9181 0.254054 34.5247 0.334236 34.1313 0.43669C32.2083 0.935595 30.3915 1.93786 28.8973 3.44349L27.8496 4.49921C23.2611 9.123 18.6725 13.7468 14.084 18.3706L16.1351 20.4375L17.2801 21.5912L19.3533 23.6804L20.2109 22.8162C22.4919 20.5177 24.8083 18.1835 27.1247 15.8493C29.472 13.484 31.8193 11.1186 34.1666 8.75327V8.75773Z" fill="black"/>
<path fill-rule="evenodd" clip-rule="evenodd" d="M18.1597 34.7365L20.2108 32.6696L21.3558 31.5159L23.429 29.4267L22.5714 28.5625C17.921 23.8764 13.2705 19.1902 8.61568 14.4996C8.16478 14.0452 7.8465 13.5063 7.65642 12.9316C7.53264 12.5574 7.46633 12.1699 7.44865 11.7779C7.40887 10.6865 7.79788 9.58182 8.61126 8.75774C8.62452 8.74437 8.63779 8.73101 8.65105 8.71765C8.66431 8.70428 8.67757 8.69092 8.69083 8.68201C8.70409 8.66865 8.71736 8.65528 8.73062 8.64637C8.74388 8.63301 8.75714 8.6241 8.7704 8.61074C8.78366 8.59738 8.79693 8.58847 8.81019 8.5751C8.82345 8.56174 8.83671 8.55283 8.84997 8.53947C8.86323 8.5261 8.8765 8.51719 8.88976 8.50383C8.90302 8.49047 8.91628 8.48156 8.92954 8.46819C8.94281 8.45483 8.95607 8.44592 8.96933 8.43701C8.98259 8.4281 8.99585 8.41474 9.00911 8.40583C9.02237 8.39692 9.03564 8.38356 9.05332 8.37465C9.06658 8.36574 9.07984 8.35238 9.09753 8.34347C9.11079 8.33456 9.12405 8.3212 9.14173 8.31229C9.15499 8.30338 9.17268 8.29001 9.18594 8.2811C9.1992 8.2722 9.21688 8.26329 9.23014 8.24992C9.2434 8.24101 9.26109 8.2321 9.27435 8.2232C9.28761 8.21429 9.30529 8.20538 9.31855 8.19647C9.33182 8.18756 9.3495 8.17865 9.36276 8.16974C9.37602 8.16083 9.3937 8.15192 9.40697 8.14301C9.42023 8.13411 9.43791 8.1252 9.45117 8.11629C9.45117 8.11629 9.48211 8.09847 9.49538 8.08956C9.50864 8.08065 9.52632 8.07174 9.53958 8.06283C9.55284 8.05392 9.57053 8.04501 9.58379 8.04056C9.59705 8.03165 9.61473 8.02274 9.62799 8.01829C9.64126 8.00938 9.65894 8.00492 9.6722 7.99602C9.6722 7.99602 9.70314 7.98265 9.72083 7.97374C9.73851 7.96483 9.75177 7.96038 9.76945 7.95147C9.76945 7.95147 9.8004 7.93811 9.81808 7.9292C9.81808 7.9292 9.84902 7.91583 9.8667 7.90693C9.88439 7.89802 9.89765 7.89356 9.91533 7.88911C9.93301 7.88465 9.94628 7.87574 9.96396 7.87129C9.96396 7.87129 9.9949 7.85793 10.0126 7.85347C10.0126 7.85347 10.0435 7.84011 10.0612 7.83565C10.0612 7.83565 10.0922 7.82229 10.1098 7.81783C10.1275 7.81338 10.1408 7.80447 10.1585 7.80002C10.1761 7.79556 10.1894 7.79111 10.2071 7.7822C10.2248 7.77774 10.238 7.77329 10.2557 7.76884C10.2734 7.76438 10.2867 7.75993 10.3043 7.75547C10.322 7.75102 10.3353 7.74656 10.353 7.74211C10.353 7.74211 10.3839 7.7332 10.4016 7.72874C10.4193 7.72874 10.4325 7.71984 10.4502 7.71538C10.4502 7.71538 10.4812 7.70647 10.4988 7.70202C10.4988 7.70202 10.5298 7.69311 10.5475 7.68865C10.5652 7.68865 10.5828 7.67974 10.5961 7.67974C10.5961 7.67974 10.6315 7.67084 10.6447 7.67084C10.6624 7.67084 10.6801 7.66638 10.6934 7.66193C10.711 7.66193 10.7287 7.65747 10.742 7.65302C10.7597 7.65302 10.7773 7.64856 10.7906 7.64411C10.7906 7.64411 10.826 7.63965 10.8392 7.6352C10.8392 7.6352 10.8746 7.63074 10.8879 7.62629C10.9055 7.62629 10.9232 7.62184 10.9365 7.62184C10.9365 7.62184 10.9718 7.62184 10.9851 7.61738C11.0028 7.61738 11.0205 7.61738 11.0337 7.61293C11.0514 7.61293 11.0691 7.61293 11.0824 7.60847C11.1 7.60847 11.1177 7.60847 11.131 7.60847C11.1487 7.60847 11.1664 7.60847 11.1796 7.60847C11.1796 7.60847 11.215 7.60847 11.2282 7.60847C11.2459 7.60847 11.2636 7.60847 11.2769 7.60847C11.2945 7.60847 11.3122 7.60847 11.3255 7.60847C11.3432 7.60847 11.3609 7.60847 11.3741 7.60847C11.3741 7.60847 11.4095 7.60847 11.4227 7.60847C11.4404 7.60847 11.4581 7.60847 11.4714 7.60847C11.4891 7.60847 11.5067 7.60847 11.52 7.60847C11.5377 7.60847 11.5554 7.60847 11.5686 7.60847C11.9576 7.62184 12.3422 7.69311 12.7136 7.81783C13.2838 8.00938 13.8187 8.3301 14.2696 8.78446L17.2667 11.8046L18.1155 12.6599L18.9642 11.8046L20.1666 10.593L21.3116 9.43928L23.3848 7.35011C22.1029 6.0583 20.8209 4.76649 19.5389 3.47468C18.0403 1.9646 16.2235 0.962333 14.305 0.467881C13.916 0.365428 13.5181 0.285246 13.1202 0.227338C9.68988 -0.320568 6.01196 0.761879 3.35078 3.44795C0.685174 6.12957 -0.389025 9.83573 0.123762 13.3414C0.181229 13.7423 0.260799 14.1388 0.362473 14.5352C0.857577 16.473 1.85221 18.3038 3.34636 19.8094L4.39404 20.8651C8.98259 25.4889 13.5711 30.1127 18.1597 34.7365Z" fill="black"/>
</svg>
