<svg width="504" height="147" viewBox="0 0 504 147" fill="none" xmlns="http://www.w3.org/2000/svg">
<rect width="504" height="147" fill="black"/>
<path fill-rule="evenodd" clip-rule="evenodd" d="M263.723 90.138C263.153 89.9465 262.618 89.6257 262.167 89.1714L259.17 86.1512L258.321 85.2959L257.472 86.1512L256.27 87.3628L255.125 88.5166L253.052 90.6057L254.975 92.5434L255.85 93.4254L256.898 94.4812C258.396 95.9912 260.213 96.9935 262.132 97.488C262.521 97.5904 262.918 97.6706 263.316 97.7285C266.795 98.2452 270.473 97.1628 273.134 94.4812C275.8 91.7951 276.874 88.0934 276.357 84.5877C276.3 84.1868 276.22 83.7903 276.118 83.3939C275.623 81.4561 274.629 79.6253 273.134 78.1197L272.087 77.064C267.498 72.4402 262.91 67.8164 258.321 63.1926L256.27 65.2595L255.125 66.4132L253.052 68.5024C257.959 73.4469 262.923 78.4493 267.865 83.4295C268.316 83.8839 268.634 84.4229 268.824 84.9975C268.948 85.3717 269.014 85.7592 269.032 86.1512C269.072 87.2426 268.683 88.3473 267.87 89.1714C267.056 89.991 265.955 90.383 264.872 90.3429C264.483 90.3295 264.099 90.2583 263.727 90.1335L263.723 90.138Z" fill="#23CAD7"/>
<path fill-rule="evenodd" clip-rule="evenodd" d="M245.311 86.1512L242.314 89.1714C241.863 89.6258 241.328 89.9465 240.758 90.138C240.387 90.2628 240.002 90.3296 239.613 90.3474C238.53 90.3875 237.434 89.9955 236.616 89.1759C235.803 88.3562 235.414 87.2471 235.454 86.1557C235.467 85.7637 235.538 85.3762 235.661 85.002C236.148 83.532 238.486 81.5542 239.618 80.4138L240.466 79.5586L239.618 78.7033L238.415 77.4917L237.27 76.3379L235.197 74.2488C232.492 76.9749 229.349 79.5318 228.367 83.3984C228.266 83.7904 228.186 84.1913 228.129 84.5922C227.616 88.0979 228.69 91.804 231.351 94.4857C234.017 97.1717 237.69 98.2542 241.169 97.733C241.567 97.6751 241.961 97.5949 242.354 97.4924C244.277 96.9935 246.094 95.9913 247.588 94.4857L248.636 93.4299L249.511 92.5479C253.808 88.2181 258.105 83.8884 262.401 79.5586L260.35 77.4917L259.205 76.3379L257.132 74.2488L256.274 75.113C252.658 78.7568 248.972 82.4718 245.316 86.1557L245.311 86.1512Z" fill="white"/>
<path fill-rule="evenodd" clip-rule="evenodd" d="M262.167 57.6868C262.618 57.2324 263.153 56.9117 263.723 56.7202C264.095 56.5954 264.479 56.5286 264.868 56.5108C265.951 56.4707 267.047 56.8627 267.865 57.6823C268.679 58.502 269.068 59.6112 269.028 60.7025C269.015 61.0945 268.944 61.4821 268.82 61.8562C268.63 62.4309 268.312 62.9699 267.861 63.4242L264.864 66.4444L264.015 67.2997C265.77 69.0681 267.529 70.841 269.284 72.6094C270.566 71.3176 271.848 70.0258 273.13 68.734C274.629 67.2239 275.623 65.3931 276.114 63.4599C276.216 63.0679 276.295 62.667 276.353 62.266C276.866 58.7603 275.791 55.0542 273.13 52.3726C270.469 49.6909 266.795 48.6085 263.316 49.1252C262.919 49.1831 262.525 49.2633 262.132 49.3658C260.209 49.8647 258.392 50.8669 256.898 52.3726L255.85 53.4283C251.262 58.0521 246.673 62.6759 242.084 67.2997L244.136 69.3665L245.281 70.5203L247.354 72.6094L248.211 71.7453C250.492 69.4467 252.809 67.1126 255.125 64.7784C257.472 62.413 259.82 60.0477 262.167 57.6823V57.6868Z" fill="white"/>
<path fill-rule="evenodd" clip-rule="evenodd" d="M246.16 83.6656L248.211 81.5987L249.356 80.4449L251.43 78.3558L250.572 77.4916C245.921 72.8054 241.271 68.1193 236.616 63.4287C236.165 62.9743 235.847 62.4353 235.657 61.8607C235.533 61.4865 235.467 61.099 235.449 60.707C235.409 59.6156 235.798 58.5109 236.612 57.6868C236.625 57.6735 236.638 57.6601 236.652 57.6467C236.665 57.6334 236.678 57.62 236.691 57.6111C236.705 57.5977 236.718 57.5844 236.731 57.5755C236.744 57.5621 236.758 57.5532 236.771 57.5398C236.784 57.5265 236.797 57.5175 236.811 57.5042C236.824 57.4908 236.837 57.4819 236.85 57.4685C236.864 57.4552 236.877 57.4463 236.89 57.4329C236.904 57.4195 236.917 57.4106 236.93 57.3973C236.943 57.3839 236.957 57.375 236.97 57.3661C236.983 57.3572 236.996 57.3438 237.01 57.3349C237.023 57.326 237.036 57.3126 237.054 57.3037C237.067 57.2948 237.08 57.2815 237.098 57.2725C237.111 57.2636 237.125 57.2503 237.142 57.2414C237.155 57.2325 237.173 57.2191 237.186 57.2102C237.2 57.2013 237.217 57.1924 237.231 57.179C237.244 57.1701 237.262 57.1612 237.275 57.1523C237.288 57.1434 237.306 57.1345 237.319 57.1255C237.332 57.1166 237.35 57.1077 237.363 57.0988C237.377 57.0899 237.394 57.081 237.407 57.0721C237.421 57.0632 237.438 57.0543 237.452 57.0454C237.452 57.0454 237.483 57.0275 237.496 57.0186C237.509 57.0097 237.527 57.0008 237.54 56.9919C237.553 56.983 237.571 56.9741 237.584 56.9696C237.598 56.9607 237.615 56.9518 237.628 56.9474C237.642 56.9385 237.659 56.934 237.673 56.9251C237.673 56.9251 237.704 56.9117 237.721 56.9028C237.739 56.8939 237.752 56.8895 237.77 56.8805C237.77 56.8805 237.801 56.8672 237.819 56.8583C237.819 56.8583 237.85 56.8449 237.867 56.836C237.885 56.8271 237.898 56.8226 237.916 56.8182C237.934 56.8137 237.947 56.8048 237.964 56.8004C237.964 56.8004 237.995 56.787 238.013 56.7825C238.013 56.7825 238.044 56.7692 238.062 56.7647C238.062 56.7647 238.093 56.7514 238.11 56.7469C238.128 56.7425 238.141 56.7335 238.159 56.7291C238.177 56.7246 238.19 56.7202 238.208 56.7113C238.225 56.7068 238.239 56.7024 238.256 56.6979C238.274 56.6935 238.287 56.689 238.305 56.6845C238.323 56.6801 238.336 56.6756 238.353 56.6712C238.353 56.6712 238.384 56.6623 238.402 56.6578C238.42 56.6578 238.433 56.6489 238.451 56.6445C238.451 56.6445 238.482 56.6355 238.499 56.6311C238.499 56.6311 238.53 56.6222 238.548 56.6177C238.566 56.6177 238.583 56.6088 238.597 56.6088C238.597 56.6088 238.632 56.5999 238.645 56.5999C238.663 56.5999 238.681 56.5955 238.694 56.591C238.712 56.591 238.729 56.5865 238.742 56.5821C238.76 56.5821 238.778 56.5776 238.791 56.5732C238.791 56.5732 238.826 56.5687 238.84 56.5643C238.84 56.5643 238.875 56.5598 238.888 56.5554C238.906 56.5554 238.924 56.5509 238.937 56.5509C238.937 56.5509 238.972 56.5509 238.986 56.5465C239.003 56.5465 239.021 56.5465 239.034 56.542C239.052 56.542 239.07 56.542 239.083 56.5375C239.101 56.5375 239.118 56.5375 239.131 56.5375C239.149 56.5375 239.167 56.5375 239.18 56.5375C239.18 56.5375 239.215 56.5375 239.229 56.5375C239.246 56.5375 239.264 56.5375 239.277 56.5375C239.295 56.5375 239.313 56.5375 239.326 56.5375C239.344 56.5375 239.361 56.5375 239.375 56.5375C239.375 56.5375 239.41 56.5375 239.423 56.5375C239.441 56.5375 239.459 56.5375 239.472 56.5375C239.49 56.5375 239.507 56.5375 239.52 56.5375C239.538 56.5375 239.556 56.5375 239.569 56.5375C239.958 56.5509 240.343 56.6222 240.714 56.7469C241.284 56.9385 241.819 57.2592 242.27 57.7135L245.267 60.7337L246.116 61.589L246.965 60.7337L248.167 59.5221L249.312 58.3684L251.385 56.2792C250.103 54.9874 248.821 53.6956 247.539 52.4038C246.041 50.8937 244.224 49.8914 242.305 49.397C241.916 49.2945 241.519 49.2143 241.121 49.1564C237.69 48.6085 234.012 49.691 231.351 52.377C228.686 55.0586 227.611 58.7648 228.124 62.2705C228.182 62.6714 228.261 63.0679 228.363 63.4643C228.858 65.402 229.853 67.2328 231.347 68.7385L232.395 69.7942C236.983 74.418 241.572 79.0418 246.16 83.6656Z" fill="white"/>
</svg>
