<svg width="504" height="147" viewBox="0 0 504 147" fill="none" xmlns="http://www.w3.org/2000/svg">
<g clip-path="url(#clip0_1648_1222)">
<path d="M504 0H0V147H504V0Z" fill="white"/>
<path d="M249.182 96.6793L249.046 96.8132C243.276 102.44 234.036 102.395 228.321 96.6793C223.018 91.3768 222.596 83.042 227.055 77.257C227.145 77.141 227.316 77.1312 227.42 77.2347L234.191 84.0057C234.264 84.0795 234.283 84.1912 234.241 84.2869C233.46 86.0851 233.804 88.2551 235.274 89.7255C237.195 91.6457 240.308 91.6457 242.228 89.7255L251.152 80.8013C251.344 80.6094 251.656 80.6094 251.848 80.8013L258.106 87.0598C258.298 87.2519 258.298 87.5633 258.106 87.7552L249.182 96.6793Z" fill="#143BFF"/>
<path d="M228.321 50.3205C233.623 45.018 241.958 44.5963 247.743 49.0553C247.859 49.1447 247.869 49.3159 247.765 49.4194L240.994 56.1904C240.921 56.2641 240.809 56.2828 240.713 56.2412C238.915 55.4597 236.745 55.8038 235.274 57.2743C233.354 59.1945 233.354 62.3079 235.274 64.2282L244.198 73.1521C244.391 73.3442 244.391 73.6556 244.198 73.8475L237.94 80.106C237.748 80.2981 237.437 80.2981 237.245 80.106L228.321 71.182C222.56 65.4211 222.56 56.0812 228.321 50.3205Z" fill="#143BFF"/>
<path d="M258.802 73.8476C258.609 73.6557 258.609 73.3443 258.802 73.1522L267.726 64.2283C269.646 62.308 269.646 59.1946 267.726 57.2744C265.805 55.3541 262.692 55.3541 260.772 57.2744L251.848 66.1984C251.656 66.3905 251.344 66.3905 251.152 66.1984L244.894 59.94C244.702 59.748 244.702 59.4367 244.894 59.2446L253.818 50.3206C259.579 44.5598 268.919 44.5598 274.679 50.3206C280.44 56.0813 280.44 65.4212 274.679 71.1821L272.709 73.1522C272.517 73.3443 272.517 73.6557 272.709 73.8476L274.679 75.818L274.813 75.9537C280.44 81.7243 280.395 90.9636 274.679 96.6795C269.377 101.982 261.042 102.404 255.257 97.9446C255.141 97.8551 255.131 97.6839 255.235 97.5804L262.006 90.8094C262.079 90.7358 262.191 90.7171 262.287 90.7587C264.085 91.5403 266.255 91.1961 267.726 89.7256C269.646 87.8053 269.646 84.692 267.726 82.7718L258.802 73.8476Z" fill="#143BFF"/>
</g>
<defs>
<clipPath id="clip0_1648_1222">
<rect width="504" height="147" fill="white"/>
</clipPath>
</defs>
</svg>
