<svg width="504" height="147" viewBox="0 0 504 147" fill="none" xmlns="http://www.w3.org/2000/svg">
<g clip-path="url(#clip0_1648_1162)">
<path d="M504 0H0V147H504V0Z" fill="black"/>
<path d="M250.189 84.8027L250.053 84.9369C244.3 90.577 235.089 90.5323 229.39 84.8027C224.103 79.4873 223.683 71.1322 228.129 65.3332C228.218 65.2169 228.388 65.207 228.492 65.3108L235.242 72.0983C235.316 72.1722 235.334 72.2842 235.293 72.3802C234.514 74.1828 234.857 76.358 236.323 77.832C238.237 79.7568 241.341 79.7568 243.256 77.832L252.153 68.8861C252.345 68.6937 252.655 68.6937 252.846 68.8861L259.086 75.1598C259.277 75.3523 259.277 75.6645 259.086 75.8569L250.189 84.8027Z" fill="white"/>
<path d="M229.39 38.3311C234.676 33.0157 242.986 32.5931 248.754 37.0628C248.87 37.1524 248.879 37.324 248.776 37.4279L242.025 44.2153C241.952 44.2892 241.84 44.3079 241.745 44.2663C239.952 43.4828 237.789 43.8278 236.323 45.3018C234.408 47.2267 234.408 50.3476 236.323 52.2726L245.22 61.2183C245.412 61.4108 245.412 61.723 245.22 61.9154L238.981 68.189C238.789 68.3816 238.479 68.3816 238.287 68.189L229.39 59.2433C223.647 53.4685 223.647 44.1058 229.39 38.3311Z" fill="white"/>
<path d="M259.779 61.9153C259.588 61.723 259.588 61.4108 259.779 61.2183L268.676 52.2726C270.591 50.3476 270.591 47.2267 268.676 45.3018C266.762 43.3769 263.658 43.3769 261.744 45.3018L252.846 54.2475C252.655 54.4401 252.345 54.4401 252.153 54.2475L245.913 47.9739C245.722 47.7814 245.722 47.4693 245.913 47.2768L254.811 38.3311C260.554 32.5563 269.866 32.5563 275.609 38.3311C281.353 44.1058 281.353 53.4685 275.609 59.2433L273.645 61.2183C273.454 61.4108 273.454 61.723 273.645 61.9153L275.609 63.8905L275.743 64.0265C281.352 69.8112 281.308 79.0729 275.609 84.8027C270.323 90.1179 262.013 90.5407 256.246 86.0709C256.13 85.9812 256.12 85.8096 256.223 85.7058L262.974 78.9183C263.047 78.8446 263.159 78.8258 263.254 78.8675C265.047 79.651 267.21 79.306 268.676 77.8319C270.591 75.9069 270.591 72.786 268.676 70.8612L259.779 61.9153Z" fill="white"/>
<path d="M213.396 110.104C213.874 110.104 214.247 109.962 214.514 109.679C214.795 109.382 214.935 108.971 214.935 108.448V99.3516C214.935 99.2152 215.045 99.1046 215.18 99.1046H218.527C218.662 99.1046 218.772 99.2152 218.772 99.3516V108.363C218.772 109.424 218.582 110.373 218.202 111.208C217.823 112.029 217.24 112.68 216.453 113.161C215.666 113.629 214.647 113.862 213.396 113.862C212.16 113.862 211.141 113.636 210.34 113.183C209.539 112.73 208.949 112.1 208.569 111.293C208.19 110.472 208 109.538 208 108.49V107.951C208 107.815 208.11 107.704 208.245 107.704H211.591C211.727 107.704 211.836 107.815 211.836 107.951V108.49C211.836 109 211.977 109.396 212.258 109.679C212.539 109.962 212.919 110.104 213.396 110.104Z" fill="white"/>
<path d="M227.272 113.862C225.881 113.862 224.736 113.615 223.836 113.119C222.951 112.609 222.291 111.859 221.855 110.868C221.433 109.863 221.223 108.617 221.223 107.131V99.3516C221.223 99.2152 221.332 99.1046 221.468 99.1046H224.814C224.949 99.1046 225.059 99.2152 225.059 99.3516V107.492C225.059 108.313 225.242 108.957 225.607 109.424C225.973 109.877 226.528 110.104 227.272 110.104C228.017 110.104 228.572 109.877 228.938 109.424C229.303 108.957 229.486 108.313 229.486 107.492V99.3516C229.486 99.2152 229.596 99.1046 229.731 99.1046H233.077C233.212 99.1046 233.322 99.2152 233.322 99.3516V107.131C233.322 108.617 233.104 109.863 232.669 110.868C232.247 111.859 231.594 112.609 230.708 113.119C229.823 113.615 228.678 113.862 227.272 113.862Z" fill="white"/>
<path d="M241.884 114C240.366 114 239.059 113.681 237.963 113.044C236.867 112.408 236.023 111.53 235.433 110.411C234.843 109.279 234.548 107.97 234.548 106.483C234.548 105.379 234.724 104.367 235.075 103.447C235.426 102.527 235.925 101.734 236.571 101.069C237.218 100.389 237.991 99.8724 238.89 99.5186C239.79 99.1504 240.787 98.9664 241.884 98.9664C243.598 98.9664 245.017 99.3629 246.142 100.156C247.24 100.916 248.043 102.041 248.551 103.53C248.572 103.591 248.542 103.657 248.483 103.682L245.327 105.034C245.265 105.06 245.193 105.031 245.165 104.969C244.848 104.259 244.436 103.709 243.928 103.319C243.394 102.909 242.713 102.704 241.884 102.704C241.209 102.704 240.612 102.852 240.092 103.15C239.572 103.447 239.164 103.878 238.869 104.445C238.588 105.011 238.448 105.691 238.448 106.483C238.448 107.276 238.588 107.955 238.869 108.522C239.164 109.088 239.572 109.52 240.092 109.817C240.612 110.1 241.209 110.242 241.884 110.242C242.713 110.242 243.394 110.043 243.928 109.647C244.436 109.257 244.848 108.707 245.165 107.998C245.193 107.936 245.265 107.906 245.327 107.933L248.483 109.284C248.542 109.309 248.572 109.376 248.551 109.436C248.043 110.926 247.24 112.058 246.142 112.832C245.017 113.611 243.598 114 241.884 114Z" fill="white"/>
<path d="M261.815 99.2539H258.469C258.333 99.2539 258.223 99.3643 258.223 99.5007V104.507C258.223 104.643 258.114 104.753 257.978 104.753H253.873C253.738 104.753 253.628 104.643 253.628 104.507V99.5007C253.628 99.3643 253.518 99.2539 253.383 99.2539H250.058C249.922 99.2539 249.813 99.3643 249.813 99.5007V113.467C249.813 113.604 249.922 113.714 250.058 113.714H253.383C253.518 113.714 253.628 113.604 253.628 113.467V108.737C253.628 108.601 253.738 108.491 253.873 108.491H257.978C258.114 108.491 258.223 108.601 258.223 108.737V113.467C258.223 113.604 258.333 113.714 258.469 113.714H261.815C261.95 113.714 262.06 113.604 262.06 113.467V99.5007C262.06 99.3643 261.95 99.2539 261.815 99.2539Z" fill="white"/>
<path d="M281.838 113.467C281.838 113.604 281.728 113.714 281.592 113.714H278.267C278.132 113.714 278.022 113.604 278.022 113.467V99.5007C278.022 99.3643 278.132 99.2539 278.267 99.2539H281.592C281.728 99.2539 281.838 99.3643 281.838 99.5007V113.467Z" fill="white"/>
<path d="M292.941 106.527C293.01 106.626 293.164 106.577 293.164 106.456V99.5007C293.164 99.3643 293.273 99.2539 293.409 99.2539H296.755C296.89 99.2539 297 99.3643 297 99.5007V113.467C297 113.604 296.89 113.714 296.755 113.714H293.501C293.461 113.714 293.424 113.695 293.401 113.662L288.327 106.433C288.258 106.335 288.104 106.384 288.104 106.505V113.467C288.104 113.604 287.995 113.714 287.859 113.714H284.534C284.399 113.714 284.289 113.604 284.289 113.467V99.5007C284.289 99.3643 284.399 99.2539 284.534 99.2539H287.788C287.828 99.2539 287.865 99.2734 287.888 99.3062L292.941 106.527Z" fill="white"/>
<path fill-rule="evenodd" clip-rule="evenodd" d="M276.745 113.553C276.77 113.633 276.711 113.714 276.628 113.714H273.052C272.997 113.714 272.949 113.678 272.934 113.625L272.358 111.637C272.342 111.584 272.294 111.548 272.24 111.548H267.909C267.856 111.548 267.809 111.582 267.792 111.633L267.128 113.63C267.111 113.68 267.064 113.714 267.012 113.714H263.458C263.373 113.714 263.314 113.63 263.342 113.549L268.336 99.3361C268.353 99.2868 268.399 99.2539 268.451 99.2539H272.091C272.144 99.2539 272.191 99.2885 272.207 99.3395L276.745 113.553ZM269.054 107.84C269.028 107.92 269.087 108.002 269.171 108.002H271.14C271.222 108.002 271.281 107.923 271.258 107.844L270.34 104.681C270.307 104.565 270.145 104.562 270.107 104.676L269.054 107.84Z" fill="white"/>
</g>
<defs>
<clipPath id="clip0_1648_1162">
<rect width="504" height="147" fill="white"/>
</clipPath>
</defs>
</svg>
