<svg width="504" height="147" viewBox="0 0 504 147" fill="none" xmlns="http://www.w3.org/2000/svg">
<g clip-path="url(#clip0_1648_1239)">
<path d="M504 0H0V147H504V0Z" fill="white"/>
<path d="M156.143 96.6769L156.008 96.8108C150.246 102.437 141.021 102.392 135.314 96.6769C130.02 91.3746 129.599 83.0402 134.051 77.2555C134.14 77.1396 134.311 77.1297 134.414 77.2333L141.175 84.004C141.248 84.0776 141.267 84.1895 141.226 84.2851C140.445 86.0831 140.789 88.253 142.257 89.7234C144.174 91.6435 147.283 91.6435 149.2 89.7234L158.11 80.7997C158.302 80.6077 158.613 80.6077 158.805 80.7997L165.054 87.0579C165.245 87.2499 165.245 87.5612 165.054 87.7532L156.143 96.6769Z" fill="#143BFF"/>
<path d="M135.314 50.3202C140.608 45.018 148.93 44.5964 154.706 49.0551C154.822 49.1445 154.832 49.3157 154.728 49.4193L147.968 56.1899C147.894 56.2636 147.783 56.2822 147.687 56.2407C145.892 55.4592 143.725 55.8033 142.257 57.2737C140.34 59.1939 140.34 62.307 142.257 64.2272L151.167 73.1508C151.359 73.3428 151.359 73.6541 151.167 73.8462L144.919 80.1043C144.727 80.2963 144.416 80.2963 144.224 80.1043L135.314 71.1806C129.562 65.4202 129.562 56.0807 135.314 50.3202Z" fill="#143BFF"/>
<path d="M165.748 73.8463C165.556 73.6542 165.556 73.3429 165.748 73.1509L174.658 64.2273C176.575 62.3071 176.575 59.194 174.658 57.2738C172.741 55.3537 169.632 55.3537 167.715 57.2738L158.805 66.1974C158.613 66.3894 158.302 66.3894 158.11 66.1974L151.862 59.9393C151.67 59.7473 151.67 59.436 151.862 59.244L160.772 50.3203C166.524 44.5599 175.849 44.5599 181.601 50.3203C187.353 56.0808 187.353 65.4203 181.601 71.1808L179.634 73.1509C179.442 73.3429 179.442 73.6542 179.634 73.8463L181.601 75.8164L181.735 75.9521C187.353 81.7226 187.308 90.9614 181.601 96.6769C176.307 101.979 167.985 102.401 162.209 97.9419C162.093 97.8523 162.083 97.6815 162.187 97.5778L168.947 90.8071C169.021 90.7334 169.133 90.7148 169.228 90.7563C171.023 91.5379 173.19 91.1937 174.658 89.7233C176.575 87.8032 176.575 84.69 174.658 82.7699L165.748 73.8463Z" fill="#143BFF"/>
<path d="M206.543 80.709C207.5 80.709 208.246 80.4271 208.78 79.8633C209.343 79.2713 209.625 78.4538 209.625 77.4108V59.2971C209.625 59.0256 209.845 58.8054 210.116 58.8054H216.818C217.09 58.8054 217.309 59.0256 217.309 59.2971V77.2417C217.309 79.3559 216.929 81.2446 216.169 82.9078C215.409 84.5428 214.241 85.8396 212.665 86.798C211.088 87.7283 209.048 88.1934 206.543 88.1934C204.066 88.1934 202.025 87.7424 200.421 86.8403C198.816 85.9382 197.634 84.6838 196.874 83.077C196.114 81.442 195.734 79.5814 195.734 77.4953V76.4225C195.734 76.151 195.954 75.9308 196.225 75.9308H202.928C203.198 75.9308 203.418 76.151 203.418 76.4225V77.4953C203.418 78.5102 203.7 79.2995 204.263 79.8633C204.826 80.4271 205.585 80.709 206.543 80.709Z" fill="#143BFF"/>
<path d="M234.336 88.1934C231.55 88.1934 229.255 87.7001 227.454 86.7134C225.681 85.6986 224.358 84.2046 223.485 82.2312C222.641 80.2298 222.218 77.7491 222.218 74.7891V59.2971C222.218 59.0256 222.438 58.8054 222.709 58.8054H229.412C229.683 58.8054 229.902 59.0256 229.902 59.2971V75.5079C229.902 77.143 230.268 78.4256 231 79.3559C231.732 80.258 232.844 80.709 234.336 80.709C235.828 80.709 236.94 80.258 237.672 79.3559C238.404 78.4256 238.77 77.143 238.77 75.5079V59.2971C238.77 59.0256 238.989 58.8054 239.26 58.8054H245.963C246.234 58.8054 246.454 59.0256 246.454 59.2971V74.7891C246.454 77.7491 246.017 80.2298 245.145 82.2312C244.3 84.2046 242.991 85.6986 241.218 86.7134C239.445 87.7001 237.151 88.1934 234.336 88.1934Z" fill="#143BFF"/>
<path d="M263.602 88.468C260.562 88.468 257.944 87.8337 255.749 86.5652C253.553 85.2966 251.864 83.5488 250.682 81.3218C249.5 79.0666 248.909 76.4591 248.909 73.4991C248.909 71.3003 249.261 69.2848 249.965 67.4524C250.668 65.6201 251.667 64.0414 252.962 62.7165C254.257 61.3634 255.805 60.3345 257.606 59.6297C259.408 58.8968 261.406 58.5303 263.602 58.5303C267.036 58.5303 269.879 59.3196 272.131 60.8982C274.33 62.4123 275.938 64.6524 276.956 67.6183C276.998 67.7392 276.938 67.8715 276.821 67.9214L270.499 70.6123C270.374 70.6653 270.23 70.6069 270.175 70.4832C269.54 69.0703 268.714 67.9754 267.698 67.1987C266.628 66.3812 265.263 65.9725 263.602 65.9725C262.251 65.9725 261.055 66.2684 260.013 66.8604C258.972 67.4524 258.156 68.3122 257.564 69.4398C257.001 70.5674 256.72 71.9205 256.72 73.4991C256.72 75.0778 257.001 76.4309 257.564 77.5585C258.156 78.6861 258.972 79.5459 260.013 80.1379C261.055 80.7016 262.251 80.9836 263.602 80.9836C265.263 80.9836 266.628 80.5889 267.698 79.7996C268.714 79.0229 269.54 77.928 270.175 76.5151C270.23 76.3914 270.374 76.3329 270.499 76.386L276.821 79.0768C276.938 79.1268 276.998 79.259 276.956 79.38C275.938 82.3465 274.33 84.6007 272.131 86.1423C269.879 87.6928 267.036 88.468 263.602 88.468Z" fill="#143BFF"/>
<path d="M303.524 59.1025H296.821C296.55 59.1025 296.33 59.3226 296.33 59.5942V69.5626C296.33 69.8342 296.11 70.0543 295.839 70.0543H287.617C287.346 70.0543 287.126 69.8342 287.126 69.5626V59.5942C287.126 59.3226 286.906 59.1025 286.635 59.1025H279.975C279.703 59.1025 279.484 59.3226 279.484 59.5942V87.4069C279.484 87.6784 279.703 87.8986 279.975 87.8986H286.635C286.906 87.8986 287.126 87.6784 287.126 87.4069V77.9881C287.126 77.7166 287.346 77.4964 287.617 77.4964H295.839C296.11 77.4964 296.33 77.7166 296.33 77.9881V87.4069C296.33 87.6784 296.55 87.8986 296.821 87.8986H303.524C303.795 87.8986 304.015 87.6784 304.015 87.4069V59.5942C304.015 59.3226 303.795 59.1025 303.524 59.1025Z" fill="#143BFF"/>
<path d="M343.629 87.4069C343.629 87.6784 343.41 87.8986 343.138 87.8986H336.478C336.207 87.8986 335.987 87.6784 335.987 87.4069V59.5942C335.987 59.3226 336.207 59.1025 336.478 59.1025H343.138C343.41 59.1025 343.629 59.3226 343.629 59.5942V87.4069Z" fill="#143BFF"/>
<path d="M365.869 73.5867C366.007 73.7828 366.315 73.685 366.315 73.445V59.5942C366.315 59.3226 366.534 59.1025 366.806 59.1025H373.508C373.779 59.1025 373.999 59.3226 373.999 59.5942V87.4069C373.999 87.6784 373.779 87.8986 373.508 87.8986H366.99C366.911 87.8986 366.836 87.8598 366.79 87.7947L356.627 73.3995C356.489 73.2038 356.182 73.3017 356.182 73.5415V87.4069C356.182 87.6784 355.962 87.8986 355.69 87.8986H349.03C348.759 87.8986 348.539 87.6784 348.539 87.4069V59.5942C348.539 59.3226 348.759 59.1025 349.03 59.1025H355.547C355.627 59.1025 355.702 59.1414 355.748 59.2067L365.869 73.5867Z" fill="#143BFF"/>
<path fill-rule="evenodd" clip-rule="evenodd" d="M333.429 87.5774C333.48 87.7362 333.362 87.8986 333.195 87.8986H326.032C325.922 87.8986 325.827 87.8265 325.796 87.7217L324.641 83.7625C324.611 83.6577 324.515 83.5856 324.406 83.5856H315.73C315.624 83.5856 315.531 83.6531 315.497 83.7533L314.166 87.7309C314.133 87.831 314.039 87.8986 313.933 87.8986H306.815C306.646 87.8986 306.527 87.7307 306.584 87.5707L316.585 59.2664C316.62 59.1681 316.713 59.1025 316.817 59.1025H324.106C324.213 59.1025 324.307 59.1715 324.34 59.2731L333.429 87.5774ZM318.024 76.2001C317.971 76.3593 318.09 76.5241 318.257 76.5241H322.202C322.366 76.5241 322.484 76.3666 322.438 76.2092L320.601 69.9102C320.533 69.6791 320.209 69.6727 320.132 69.901L318.024 76.2001Z" fill="#143BFF"/>
</g>
<defs>
<clipPath id="clip0_1648_1239">
<rect width="504" height="147" fill="white"/>
</clipPath>
</defs>
</svg>
