<svg width="500" height="447" viewBox="0 0 500 447" fill="none" xmlns="http://www.w3.org/2000/svg">
<path d="M237.015 283.86L236.255 284.61C203.933 316.124 152.183 315.874 120.169 283.86C90.4688 254.16 88.1074 207.476 113.082 175.074C113.583 174.424 114.542 174.369 115.122 174.949L153.047 212.874C153.459 213.287 153.564 213.913 153.331 214.449C148.954 224.521 150.881 236.675 159.118 244.911C169.873 255.666 187.311 255.666 198.066 244.911L248.051 194.926C249.127 193.851 250.87 193.851 251.946 194.926L287 229.98C288.076 231.056 288.076 232.8 287 233.875L237.015 283.86Z" fill="#143BFF"/>
<path d="M120.169 24.1998C149.868 -5.49994 196.552 -7.86139 228.954 17.1134C229.604 17.6142 229.659 18.573 229.079 19.1531L191.154 57.0781C190.742 57.4907 190.115 57.5952 189.579 57.3626C179.508 52.9849 167.354 54.9127 159.118 63.1488C148.362 73.9042 148.362 91.3423 159.118 102.098L209.102 152.082C210.178 153.158 210.178 154.902 209.102 155.977L174.048 191.031C172.972 192.107 171.229 192.107 170.153 191.031L120.169 141.047C87.9022 108.78 87.9022 56.4662 120.169 24.1998Z" fill="#143BFF"/>
<path d="M290.895 155.977C289.819 154.902 289.819 153.158 290.895 152.082L340.879 102.098C351.635 91.3423 351.635 73.9042 340.879 63.1488C330.124 52.3933 312.686 52.3933 301.93 63.1488L251.946 113.133C250.87 114.209 249.127 114.209 248.051 113.133L212.997 78.0792C211.921 77.0037 211.921 75.2599 212.997 74.1843L262.981 24.1998C295.248 -8.06659 347.562 -8.0666 379.828 24.1998C412.095 56.4662 412.095 108.78 379.828 141.047L368.793 152.082C367.717 153.158 367.717 154.902 368.793 155.977L379.828 167.013L380.578 167.773C412.092 200.095 411.843 251.845 379.828 283.86C350.129 313.559 303.445 315.921 271.043 290.946C270.393 290.445 270.338 289.486 270.918 288.906L308.843 250.981C309.255 250.569 309.882 250.464 310.417 250.697C320.489 255.075 332.643 253.147 340.879 244.911C351.635 234.155 351.635 216.717 340.879 205.962L290.895 155.977Z" fill="#143BFF"/>
<path d="M30.3166 425.23C33.0009 425.23 35.093 424.439 36.5931 422.857C38.1721 421.196 38.9616 418.902 38.9616 415.976V365.152C38.9616 364.39 39.5781 363.772 40.3386 363.772H59.1377C59.8983 363.772 60.5148 364.39 60.5148 365.152V415.501C60.5148 421.433 59.4489 426.733 57.3173 431.399C55.1857 435.987 51.9093 439.625 47.4881 442.314C43.0669 444.925 37.3431 446.23 30.3166 446.23C23.369 446.23 17.6452 444.964 13.1451 442.433C8.64497 439.902 5.32909 436.382 3.19745 431.874C1.06582 427.286 0 422.066 0 416.213V413.203C0 412.441 0.616515 411.823 1.37703 411.823H20.1762C20.9367 411.823 21.5532 412.441 21.5532 413.203V416.213C21.5532 419.06 22.3427 421.275 23.9217 422.857C25.5007 424.439 27.6323 425.23 30.3166 425.23Z" fill="#143BFF"/>
<path d="M108.272 446.23C100.456 446.23 94.0212 444.846 88.9684 442.077C83.9946 439.23 80.284 435.038 77.8365 429.501C75.4681 423.885 74.2838 416.925 74.2838 408.62V365.152C74.2838 364.39 74.9003 363.772 75.6608 363.772H94.46C95.2205 363.772 95.837 364.39 95.837 365.152V410.637C95.837 415.224 96.8634 418.823 98.9161 421.433C100.969 423.964 104.087 425.23 108.272 425.23C112.456 425.23 115.574 423.964 117.627 421.433C119.68 418.823 120.706 415.224 120.706 410.637V365.152C120.706 364.39 121.323 363.772 122.083 363.772H140.882C141.643 363.772 142.259 364.39 142.259 365.152V408.62C142.259 416.925 141.036 423.885 138.588 429.501C136.22 435.038 132.549 439.23 127.575 442.077C122.601 444.846 116.167 446.23 108.272 446.23Z" fill="#143BFF"/>
<path d="M190.357 447C181.831 447 174.488 445.22 168.33 441.661C162.172 438.102 157.435 433.198 154.119 426.949C150.804 420.621 149.146 413.305 149.146 405C149.146 398.831 150.133 393.175 152.106 388.034C154.08 382.893 156.883 378.463 160.514 374.746C164.146 370.949 168.488 368.062 173.541 366.085C178.594 364.028 184.199 363 190.357 363C199.989 363 207.963 365.215 214.279 369.644C220.447 373.892 224.958 380.178 227.814 388.499C227.93 388.839 227.763 389.21 227.433 389.35L209.701 396.9C209.352 397.049 208.948 396.885 208.792 396.538C207.011 392.573 204.695 389.501 201.844 387.322C198.844 385.028 195.015 383.881 190.357 383.881C186.568 383.881 183.212 384.712 180.291 386.373C177.37 388.034 175.081 390.446 173.423 393.61C171.844 396.774 171.054 400.571 171.054 405C171.054 409.429 171.844 413.226 173.423 416.39C175.081 419.554 177.37 421.966 180.291 423.627C183.212 425.209 186.568 426 190.357 426C195.015 426 198.844 424.893 201.844 422.678C204.695 420.499 207.011 417.427 208.792 413.462C208.948 413.115 209.352 412.951 209.701 413.1L227.433 420.65C227.763 420.79 227.93 421.161 227.814 421.501C224.959 429.824 220.447 436.149 214.279 440.475C207.963 444.825 199.989 447 190.357 447Z" fill="#143BFF"/>
<path d="M302.33 364.606H283.531C282.77 364.606 282.153 365.223 282.153 365.985V393.955C282.153 394.717 281.537 395.334 280.776 395.334H257.714C256.954 395.334 256.337 394.717 256.337 393.955V365.985C256.337 365.223 255.72 364.606 254.96 364.606H236.279C235.519 364.606 234.902 365.223 234.902 365.985V444.023C234.902 444.785 235.519 445.402 236.279 445.402H254.96C255.72 445.402 256.337 444.785 256.337 444.023V417.595C256.337 416.833 256.954 416.216 257.714 416.216H280.776C281.537 416.216 282.153 416.833 282.153 417.595V444.023C282.153 444.785 282.77 445.402 283.531 445.402H302.33C303.09 445.402 303.707 444.785 303.707 444.023V365.985C303.707 365.223 303.09 364.606 302.33 364.606Z" fill="#143BFF"/>
<path d="M414.819 444.023C414.819 444.785 414.202 445.402 413.441 445.402H394.761C394 445.402 393.384 444.785 393.384 444.023V365.985C393.384 365.223 394 364.606 394.761 364.606H413.441C414.202 364.606 414.819 365.223 414.819 365.985V444.023Z" fill="#143BFF"/>
<path d="M477.196 405.246C477.583 405.796 478.447 405.522 478.447 404.848V365.985C478.447 365.223 479.063 364.606 479.824 364.606H498.623C499.383 364.606 500 365.223 500 365.985V444.023C500 444.785 499.384 445.402 498.623 445.402H480.343C480.119 445.402 479.909 445.294 479.78 445.111L451.276 404.721C450.888 404.171 450.025 404.446 450.025 405.119V444.023C450.025 444.785 449.409 445.402 448.648 445.402H429.967C429.207 445.402 428.59 444.785 428.59 444.023V365.985C428.59 365.223 429.207 364.606 429.967 364.606H448.247C448.47 364.606 448.68 364.715 448.809 364.898L477.196 405.246Z" fill="#143BFF"/>
<path fill-rule="evenodd" clip-rule="evenodd" d="M386.208 444.501C386.351 444.947 386.019 445.402 385.553 445.402H365.46C365.154 445.402 364.885 445.2 364.799 444.906L361.56 433.797C361.474 433.503 361.205 433.301 360.899 433.301H336.566C336.27 433.301 336.007 433.49 335.913 433.772L332.18 444.932C332.086 445.213 331.823 445.402 331.527 445.402H311.561C311.086 445.402 310.754 444.931 310.912 444.482L338.965 365.065C339.062 364.79 339.322 364.606 339.614 364.606H360.06C360.36 364.606 360.624 364.799 360.716 365.084L386.208 444.501ZM343.002 412.578C342.852 413.025 343.184 413.487 343.655 413.487H354.72C355.179 413.487 355.509 413.046 355.381 412.604L350.227 394.93C350.038 394.282 349.128 394.264 348.914 394.904L343.002 412.578Z" fill="#143BFF"/>
</svg>
