<svg width="256" height="256" viewBox="0 0 256 256" fill="none" xmlns="http://www.w3.org/2000/svg">
<g clip-path="url(#clip0_1378_1502)">
<path d="M117.211 235.89L116.579 236.513C89.7192 262.702 46.7145 262.494 20.1106 235.89C-4.57054 211.209 -6.53288 172.414 14.2212 145.488C14.6376 144.948 15.4345 144.902 15.9165 145.384L47.4325 176.9C47.7748 177.243 47.8621 177.764 47.6685 178.209C44.0312 186.579 45.6325 196.679 52.4775 203.523C61.415 212.461 75.9061 212.461 84.8436 203.523L126.382 161.985C127.276 161.092 128.724 161.092 129.618 161.985L158.749 191.115C159.643 192.009 159.643 193.459 158.749 194.352L117.211 235.89Z" fill="#143BFF"/>
<path d="M20.1105 20.1102C44.7906 -4.57049 83.5854 -6.53288 110.512 14.2214C111.052 14.6376 111.098 15.4343 110.616 15.9164L79.0996 47.4324C78.7572 47.7753 78.2362 47.8621 77.7908 47.6688C69.4217 44.0309 59.3216 45.6329 52.4774 52.4772C43.5391 61.415 43.5391 75.9062 52.4774 84.8443L94.0146 126.381C94.9087 127.276 94.9087 128.725 94.0146 129.618L64.8844 158.748C63.9902 159.643 62.5418 159.643 61.6476 158.748L20.1105 117.211C-6.7035 90.3971 -6.7035 46.9239 20.1105 20.1102Z" fill="#143BFF"/>
<path d="M161.985 129.618C161.091 128.725 161.091 127.276 161.985 126.381L203.522 84.8443C212.461 75.9062 212.461 61.415 203.522 52.4772C194.585 43.5393 180.094 43.5393 171.155 52.4772L129.618 94.0145C128.724 94.9086 127.276 94.9086 126.381 94.0145L97.2512 64.8845C96.357 63.9907 96.357 62.5416 97.2512 61.6478L138.788 20.1102C165.602 -6.70341 209.076 -6.70341 235.889 20.1102C262.703 46.9239 262.703 90.3971 235.889 117.211L226.719 126.381C225.825 127.276 225.825 128.725 226.719 129.618L235.889 138.789L236.512 139.421C262.701 166.281 262.494 209.285 235.889 235.89C211.209 260.57 172.414 262.533 145.488 241.779C144.948 241.362 144.902 240.565 145.384 240.083L176.9 208.567C177.242 208.225 177.763 208.138 178.208 208.331C186.578 211.969 196.678 210.367 203.522 203.523C212.461 194.585 212.461 180.094 203.522 171.156L161.985 129.618Z" fill="#143BFF"/>
</g>
<defs>
<clipPath id="clip0_1378_1502">
<rect width="256" height="256" fill="white"/>
</clipPath>
</defs>
</svg>
