<svg width="500" height="113" viewBox="0 0 500 113" fill="none" xmlns="http://www.w3.org/2000/svg">
<path d="M51.735 104.118L51.4562 104.393C39.6005 115.952 20.619 115.86 8.87632 104.118C-2.01734 93.2242 -2.88351 76.1008 6.27707 64.2159C6.46078 63.9776 6.81245 63.9573 7.02524 64.1701L20.9359 78.0808C21.0872 78.2321 21.1255 78.462 21.0402 78.6584C19.4345 82.3526 20.1416 86.8106 23.1625 89.8316C27.1076 93.7766 33.5037 93.7766 37.4488 89.8316L55.7828 71.4976C56.1773 71.1031 56.8169 71.1031 57.2114 71.4976L70.069 84.3552C70.4635 84.7497 70.4635 85.3893 70.069 85.7838L51.735 104.118Z" fill="#143BFF"/>
<path d="M8.87632 8.87632C19.77 -2.01734 36.8934 -2.88351 48.7782 6.27707C49.0165 6.46078 49.0368 6.81245 48.824 7.02524L34.9134 20.9359C34.762 21.0872 34.5321 21.1255 34.3358 21.0402C30.6415 19.4345 26.1835 20.1416 23.1625 23.1625C19.2175 27.1076 19.2175 33.5037 23.1625 37.4488L41.4965 55.7828C41.891 56.1773 41.891 56.8169 41.4965 57.2114L28.6389 70.069C28.2444 70.4635 27.6048 70.4635 27.2103 70.069L8.87632 51.735C-2.95877 39.8999 -2.95877 20.7114 8.87632 8.87632Z" fill="#143BFF"/>
<path d="M71.4976 57.2114C71.1031 56.8169 71.1031 56.1773 71.4976 55.7828L89.8316 37.4488C93.7766 33.5037 93.7766 27.1076 89.8316 23.1625C85.8866 19.2175 79.4904 19.2175 75.5454 23.1625L57.2114 41.4965C56.8169 41.891 56.1773 41.891 55.7828 41.4965L42.9252 28.6389C42.5307 28.2444 42.5307 27.6048 42.9252 27.2103L61.2591 8.87632C73.0942 -2.95877 92.2827 -2.95878 104.118 8.87632C115.953 20.7114 115.953 39.8999 104.118 51.735L100.07 55.7828C99.6756 56.1773 99.6756 56.8169 100.07 57.2114L104.118 61.2591L104.393 61.5379C115.952 73.3937 115.86 92.3752 104.118 104.118C93.2242 115.011 76.1008 115.878 64.2159 106.717C63.9776 106.533 63.9573 106.182 64.1701 105.969L78.0808 92.0583C78.2321 91.9069 78.462 91.8686 78.6584 91.9539C82.3526 93.5596 86.8106 92.8525 89.8316 89.8316C93.7766 85.8866 93.7766 79.4904 89.8316 75.5454L71.4976 57.2114Z" fill="#143BFF"/>
<path d="M155.438 71.3114C157.407 71.3114 158.942 70.7322 160.042 69.5739C161.2 68.3576 161.78 66.678 161.78 64.5351V27.3197C161.78 26.7618 162.232 26.3095 162.79 26.3095H176.581C177.139 26.3095 177.591 26.7618 177.591 27.3197V64.1876C177.591 68.5314 176.809 72.4118 175.245 75.829C173.682 79.1882 171.278 81.8524 168.035 83.8216C164.791 85.7329 160.592 86.6885 155.438 86.6885C150.341 86.6885 146.142 85.7618 142.841 83.9085C139.539 82.0551 137.107 79.4778 135.543 76.1765C133.979 72.8173 133.197 68.9947 133.197 64.7088V62.5046C133.197 61.9467 133.65 61.4944 134.207 61.4944H147.999C148.556 61.4944 149.009 61.9467 149.009 62.5046V64.7088C149.009 66.7938 149.588 68.4155 150.746 69.5739C151.905 70.7322 153.468 71.3114 155.438 71.3114Z" fill="#143BFF"/>
<path d="M212.626 86.6885C206.892 86.6885 202.171 85.6749 198.465 83.6478C194.816 81.5628 192.094 78.4932 190.298 74.4389C188.561 70.3268 187.692 65.2301 187.692 59.1487V27.3197C187.692 26.7618 188.144 26.3095 188.702 26.3095H202.493C203.051 26.3095 203.503 26.7618 203.503 27.3197V60.6256C203.503 63.9848 204.256 66.6201 205.762 68.5314C207.268 70.3847 209.556 71.3114 212.626 71.3114C215.695 71.3114 217.983 70.3847 219.489 68.5314C220.995 66.6201 221.748 63.9848 221.748 60.6256V27.3197C221.748 26.7618 222.2 26.3095 222.758 26.3095H236.549C237.107 26.3095 237.559 26.7618 237.559 27.3197V59.1487C237.559 65.2301 236.661 70.3268 234.866 74.4389C233.128 78.4932 230.435 81.5628 226.786 83.6478C223.138 85.6749 218.417 86.6885 212.626 86.6885Z" fill="#143BFF"/>
<path d="M272.844 87.2525C266.589 87.2525 261.202 85.9494 256.685 83.3431C252.167 80.7368 248.692 77.1459 246.26 72.5704C243.827 67.937 242.611 62.5797 242.611 56.4983C242.611 51.9808 243.335 47.8397 244.783 44.075C246.231 40.3104 248.287 37.067 250.951 34.3449C253.615 31.5648 256.801 29.4509 260.507 28.0029C264.214 26.4971 268.326 25.7441 272.844 25.7441C279.91 25.7441 285.759 27.3658 290.393 30.6092C294.918 33.72 298.227 38.3222 300.322 44.4158C300.407 44.6643 300.284 44.936 300.043 45.0387L287.035 50.5671C286.778 50.6761 286.482 50.5561 286.368 50.3019C285.061 47.399 283.362 45.1496 281.271 43.5538C279.07 41.8742 276.261 41.0344 272.844 41.0344C270.064 41.0344 267.602 41.6425 265.459 42.8588C263.316 44.075 261.637 45.8415 260.42 48.1582C259.262 50.4749 258.683 53.2549 258.683 56.4983C258.683 59.7417 259.262 62.5217 260.42 64.8384C261.637 67.1551 263.316 68.9216 265.459 70.1379C267.602 71.2962 270.064 71.8754 272.844 71.8754C276.261 71.8754 279.07 71.0646 281.271 69.4429C283.362 67.8471 285.061 65.5977 286.368 62.6948C286.482 62.4405 286.778 62.3205 287.035 62.4296L300.043 67.9579C300.284 68.0607 300.407 68.3323 300.322 68.5808C298.227 74.6757 294.918 79.3069 290.393 82.4743C285.759 85.6598 279.91 87.2525 272.844 87.2525Z" fill="#143BFF"/>
<path d="M354.987 26.9199H341.196C340.638 26.9199 340.186 27.3721 340.186 27.9301V48.4106C340.186 48.9685 339.733 49.4208 339.175 49.4208H322.257C321.699 49.4208 321.247 48.9685 321.247 48.4106V27.9301C321.247 27.3721 320.794 26.9199 320.236 26.9199H306.532C305.974 26.9199 305.522 27.3721 305.522 27.9301V85.0724C305.522 85.6303 305.974 86.0826 306.532 86.0826H320.236C320.794 86.0826 321.247 85.6303 321.247 85.0724V65.7212C321.247 65.1633 321.699 64.711 322.257 64.711H339.175C339.733 64.711 340.186 65.1633 340.186 65.7212V85.0724C340.186 85.6303 340.638 86.0826 341.196 86.0826H354.987C355.545 86.0826 355.997 85.6303 355.997 85.0724V27.9301C355.997 27.3721 355.545 26.9199 354.987 26.9199Z" fill="#143BFF"/>
<path d="M437.509 85.0724C437.509 85.6303 437.057 86.0826 436.499 86.0826H422.795C422.237 86.0826 421.784 85.6303 421.784 85.0724V27.9301C421.784 27.3721 422.237 26.9199 422.795 26.9199H436.499C437.057 26.9199 437.509 27.3721 437.509 27.9301V85.0724Z" fill="#143BFF"/>
<path d="M483.269 56.6782C483.553 57.0812 484.187 56.8802 484.187 56.3872V27.9301C484.187 27.3721 484.639 26.9199 485.197 26.9199H498.988C499.546 26.9199 499.998 27.3721 499.998 27.9301V85.0725C499.998 85.6304 499.546 86.0827 498.988 86.0827H485.577C485.414 86.0827 485.26 86.0031 485.165 85.8692L464.254 56.2937C463.97 55.8915 463.337 56.0927 463.337 56.5853V85.0725C463.337 85.6304 462.884 86.0827 462.326 86.0827H448.622C448.064 86.0827 447.612 85.6304 447.612 85.0725V27.9301C447.612 27.3721 448.064 26.9199 448.622 26.9199H462.032C462.196 26.9199 462.35 26.9997 462.445 27.134L483.269 56.6782Z" fill="#143BFF"/>
<path fill-rule="evenodd" clip-rule="evenodd" d="M416.52 85.4229C416.625 85.749 416.382 86.0827 416.039 86.0827H401.3C401.075 86.0827 400.878 85.9346 400.815 85.7192L398.438 77.5849C398.376 77.3695 398.178 77.2215 397.954 77.2215H380.103C379.885 77.2215 379.693 77.3602 379.624 77.5661L376.885 85.7381C376.816 85.9439 376.623 86.0827 376.406 86.0827H361.759C361.411 86.0827 361.167 85.7378 361.283 85.4091L381.863 27.2565C381.934 27.0547 382.125 26.9199 382.339 26.9199H397.338C397.558 26.9199 397.752 27.0615 397.819 27.2703L416.52 85.4229ZM384.824 62.0476C384.714 62.3748 384.958 62.7132 385.303 62.7132H393.42C393.757 62.7132 394 62.3898 393.905 62.0664L390.125 49.1247C389.986 48.6499 389.318 48.6368 389.161 49.1058L384.824 62.0476Z" fill="#143BFF"/>
</svg>
