<svg width="131" height="93" viewBox="0 0 131 93" fill="none" xmlns="http://www.w3.org/2000/svg">
<path fill-rule="evenodd" clip-rule="evenodd" d="M76.723 41.138C76.1528 40.9465 75.6179 40.6257 75.167 40.1714L72.1698 37.1512L71.3211 36.2959L70.4723 37.1512L69.2699 38.3628L68.125 39.5166L66.0518 41.6057L67.9747 43.5434L68.85 44.4254L69.8977 45.4812C71.3962 46.9912 73.2131 47.9935 75.1316 48.488C75.5206 48.5904 75.9185 48.6706 76.3163 48.7285C79.7953 49.2452 83.4732 48.1628 86.1344 45.4812C88.8 42.7951 89.8742 39.0934 89.357 35.5877C89.2996 35.1868 89.22 34.7903 89.1183 34.3939C88.6232 32.4561 87.6286 30.6253 86.1344 29.1197L85.0868 28.064C80.4982 23.4402 75.9096 18.8164 71.3211 14.1926L69.2699 16.2595L68.125 17.4132L66.0518 19.5024C70.9586 24.4469 75.9229 29.4493 80.8651 34.4295C81.316 34.8839 81.6343 35.4229 81.8244 35.9975C81.9481 36.3717 82.0145 36.7592 82.0321 37.1512C82.0719 38.2426 81.6829 39.3473 80.8695 40.1714C80.0561 40.991 78.9554 41.383 77.8724 41.3429C77.4834 41.3295 77.0988 41.2583 76.7274 41.1335L76.723 41.138Z" fill="#23CAD7"/>
<path fill-rule="evenodd" clip-rule="evenodd" d="M58.3114 37.1512L55.3143 40.1714C54.8634 40.6257 54.3285 40.9464 53.7582 41.138C53.3869 41.2627 53.0023 41.3295 52.6133 41.3473C51.5303 41.3874 50.434 40.9954 49.6162 40.1758C48.8028 39.3562 48.4138 38.247 48.4536 37.1556C48.4668 36.7636 48.5375 36.3761 48.6613 36.0019C49.1476 34.5319 51.4861 32.5541 52.6177 31.4138L53.4665 30.5585L52.6177 29.7032L51.4153 28.4916L50.2704 27.3379L48.1972 25.2487C45.4918 27.9749 42.3487 30.5318 41.3674 34.3983C41.2657 34.7903 41.1861 35.1912 41.1287 35.5921C40.6159 39.0978 41.6901 42.804 44.3513 45.4856C47.0169 48.1717 50.6904 49.2541 54.1694 48.7329C54.5672 48.675 54.9606 48.5948 55.3541 48.4924C57.277 47.9935 59.0939 46.9912 60.588 45.4856L61.6357 44.4299L62.511 43.5479C66.8078 39.2181 71.1046 34.8883 75.4014 30.5585L73.3502 28.4916L72.2053 27.3379L70.132 25.2487L69.2745 26.1129C65.6584 29.7567 61.9717 33.4718 58.3159 37.1556L58.3114 37.1512Z" fill="white"/>
<path fill-rule="evenodd" clip-rule="evenodd" d="M75.1671 8.6868C75.618 8.23244 76.1529 7.91172 76.7232 7.72017C77.0945 7.59545 77.4791 7.52863 77.8681 7.51081C78.9511 7.47072 80.0475 7.86272 80.8653 8.68235C81.6786 9.50198 82.0677 10.6112 82.0279 11.7025C82.0146 12.0945 81.9439 12.4821 81.8201 12.8562C81.63 13.4309 81.3117 13.9699 80.8608 14.4242L77.8637 17.4444L77.0149 18.2997C78.7699 20.0681 80.5293 21.841 82.2843 23.6094C83.5662 22.3176 84.8482 21.0258 86.1302 19.734C87.6287 18.2239 88.6234 16.3931 89.114 14.4599C89.2157 14.0679 89.2953 13.667 89.3528 13.266C89.8655 9.76034 88.7913 6.05419 86.1302 3.37257C83.469 0.690947 79.7955 -0.391501 76.3165 0.125223C75.9186 0.183132 75.5252 0.263313 75.1318 0.365767C73.2088 0.864673 71.392 1.86694 69.8978 3.37257L68.8501 4.42829C64.2616 9.05207 59.673 13.6759 55.0845 18.2997L57.1356 20.3665L58.2805 21.5203L60.3538 23.6094L61.2114 22.7453C63.4924 20.4467 65.8088 18.1126 68.1252 15.7784C70.4725 13.413 72.8198 11.0477 75.1671 8.68235V8.6868Z" fill="white"/>
<path fill-rule="evenodd" clip-rule="evenodd" d="M59.1602 34.6656L61.2113 32.5987L62.3563 31.4449L64.4295 29.3558L63.5719 28.4916C58.9215 23.8054 54.271 19.1193 49.6162 14.4287C49.1653 13.9743 48.847 13.4353 48.6569 12.8607C48.5331 12.4865 48.4668 12.099 48.4491 11.707C48.4094 10.6156 48.7984 9.5109 49.6118 8.68682C49.625 8.67345 49.6383 8.66009 49.6515 8.64672C49.6648 8.63336 49.6781 8.62 49.6913 8.61109C49.7046 8.59772 49.7178 8.58436 49.7311 8.57545C49.7444 8.56209 49.7576 8.55318 49.7709 8.53982C49.7842 8.52645 49.7974 8.51754 49.8107 8.50418C49.8239 8.49082 49.8372 8.48191 49.8505 8.46854C49.8637 8.45518 49.877 8.44627 49.8902 8.43291C49.9035 8.41954 49.9168 8.41064 49.93 8.39727C49.9433 8.38391 49.9566 8.375 49.9698 8.36609C49.9831 8.35718 49.9963 8.34382 50.0096 8.33491C50.0229 8.326 50.0361 8.31264 50.0538 8.30373C50.0671 8.29482 50.0803 8.28145 50.098 8.27254C50.1113 8.26364 50.1245 8.25027 50.1422 8.24136C50.1555 8.23245 50.1732 8.21909 50.1864 8.21018C50.1997 8.20127 50.2174 8.19236 50.2306 8.179C50.2439 8.17009 50.2616 8.16118 50.2748 8.15227C50.2881 8.14336 50.3058 8.13445 50.319 8.12555C50.3323 8.11664 50.35 8.10773 50.3632 8.09882C50.3765 8.08991 50.3942 8.081 50.4075 8.07209C50.4207 8.06318 50.4384 8.05427 50.4517 8.04536C50.4517 8.04536 50.4826 8.02755 50.4959 8.01864C50.5091 8.00973 50.5268 8.00082 50.5401 7.99191C50.5533 7.983 50.571 7.97409 50.5843 7.96964C50.5975 7.96073 50.6152 7.95182 50.6285 7.94737C50.6417 7.93846 50.6594 7.934 50.6727 7.92509C50.6727 7.92509 50.7036 7.91173 50.7213 7.90282C50.739 7.89391 50.7523 7.88946 50.7699 7.88055C50.7699 7.88055 50.8009 7.86718 50.8186 7.85827C50.8186 7.85827 50.8495 7.84491 50.8672 7.836C50.8849 7.82709 50.8981 7.82264 50.9158 7.81818C50.9335 7.81373 50.9468 7.80482 50.9644 7.80037C50.9644 7.80037 50.9954 7.787 51.0131 7.78255C51.0131 7.78255 51.044 7.76918 51.0617 7.76473C51.0617 7.76473 51.0926 7.75137 51.1103 7.74691C51.128 7.74246 51.1413 7.73355 51.159 7.72909C51.1766 7.72464 51.1899 7.72018 51.2076 7.71128C51.2253 7.70682 51.2385 7.70237 51.2562 7.69791C51.2739 7.69346 51.2871 7.689 51.3048 7.68455C51.3225 7.68009 51.3358 7.67564 51.3535 7.67118C51.3535 7.67118 51.3844 7.66228 51.4021 7.65782C51.4198 7.65782 51.433 7.64891 51.4507 7.64446C51.4507 7.64446 51.4817 7.63555 51.4993 7.63109C51.4993 7.63109 51.5303 7.62219 51.548 7.61773C51.5656 7.61773 51.5833 7.60882 51.5966 7.60882C51.5966 7.60882 51.632 7.59991 51.6452 7.59991C51.6629 7.59991 51.6806 7.59546 51.6938 7.591C51.7115 7.591 51.7292 7.58655 51.7425 7.5821C51.7601 7.5821 51.7778 7.57764 51.7911 7.57319C51.7911 7.57319 51.8265 7.56873 51.8397 7.56428C51.8397 7.56428 51.8751 7.55982 51.8883 7.55537C51.906 7.55537 51.9237 7.55091 51.937 7.55091C51.937 7.55091 51.9723 7.55091 51.9856 7.54646C52.0033 7.54646 52.021 7.54646 52.0342 7.542C52.0519 7.542 52.0696 7.542 52.0829 7.53755C52.1005 7.53755 52.1182 7.53755 52.1315 7.53755C52.1492 7.53755 52.1668 7.53755 52.1801 7.53755C52.1801 7.53755 52.2155 7.53755 52.2287 7.53755C52.2464 7.53755 52.2641 7.53755 52.2774 7.53755C52.295 7.53755 52.3127 7.53755 52.326 7.53755C52.3437 7.53755 52.3613 7.53755 52.3746 7.53755C52.3746 7.53755 52.41 7.53755 52.4232 7.53755C52.4409 7.53755 52.4586 7.53755 52.4719 7.53755C52.4895 7.53755 52.5072 7.53755 52.5205 7.53755C52.5382 7.53755 52.5559 7.53755 52.5691 7.53755C52.9581 7.55091 53.3427 7.62219 53.714 7.74691C54.2843 7.93846 54.8192 8.25918 55.2701 8.71354L58.2672 11.7337L59.116 12.589L59.9647 11.7337L61.1671 10.5221L62.3121 9.36836L64.3853 7.27919C63.1033 5.98738 61.8214 4.69557 60.5394 3.40376C59.0408 1.89368 57.224 0.89141 55.3054 0.396959C54.9164 0.294505 54.5186 0.214323 54.1207 0.156415C50.6904 -0.391491 47.0125 0.690957 44.3513 3.37703C41.6857 6.05865 40.6115 9.76481 41.1242 13.2705C41.1817 13.6714 41.2613 14.0679 41.363 14.4643C41.8581 16.402 42.8527 18.2328 44.3468 19.7385L45.3945 20.7942C49.9831 25.418 54.5716 30.0418 59.1602 34.6656Z" fill="white"/>
<path d="M10.5254 84.4977V67.3879H15.6135V84.413C15.6135 86.4933 15.2554 88.1415 14.5393 89.3576C13.328 91.4155 11.1398 92.4445 7.97914 92.4445C4.81843 92.4445 2.69655 91.6115 1.61793 89.9456C0.539312 88.2796 0 86.0122 0 83.1346V82.5689H4.80959V83.1346C4.85379 85.0278 5.06156 86.3552 5.42846 87.1258C5.79979 87.8965 6.58665 88.2796 7.79789 88.2796C9.00913 88.2796 9.79157 87.8608 10.1762 87.0189C10.406 86.52 10.521 85.6826 10.521 84.4977H10.5254Z" fill="white"/>
<path d="M31.8183 89.2952C31.7741 89.3487 31.6636 89.518 31.4868 89.7941C31.31 90.0703 31.1022 90.3153 30.8591 90.5247C30.1208 91.1884 29.4091 91.6428 28.7195 91.8878C28.0299 92.1328 27.2254 92.253 26.297 92.253C23.6314 92.253 21.8367 91.2909 20.9128 89.3665C20.3956 88.3063 20.1348 86.7383 20.1348 84.6714V73.7712H24.9576V84.6714C24.9576 85.7004 25.077 86.4755 25.3201 86.9922C25.7489 87.9099 26.5932 88.3687 27.8487 88.3687C29.4578 88.3687 30.5585 87.7139 31.1508 86.4087C31.4603 85.7004 31.615 84.765 31.615 83.6024V73.7623H36.3892V91.8477H31.8139V89.2908L31.8183 89.2952Z" fill="white"/>
<path d="M58.5029 90.0257C56.6861 91.6962 54.3609 92.5336 51.5317 92.5336C48.0306 92.5336 45.2766 91.4066 43.2741 89.1482C41.2715 86.8809 40.2681 83.7716 40.2681 79.8204C40.2681 75.5486 41.4086 72.2611 43.6852 69.9492C45.67 67.9358 48.1897 66.9291 51.2532 66.9291C55.3511 66.9291 58.3438 68.2788 60.2402 70.9782C61.2879 72.4928 61.8493 74.0162 61.9245 75.5397H56.8364C56.5048 74.3681 56.0805 73.4817 55.5632 72.8848C54.6393 71.8246 53.269 71.29 51.4477 71.29C49.6264 71.29 48.1367 72.0384 47.0713 73.5396C46.006 75.0408 45.4711 77.1611 45.4711 79.9006C45.4711 82.6402 46.0369 84.6981 47.1642 86.0657C48.2914 87.4332 49.7281 88.1148 51.4654 88.1148C53.2027 88.1148 54.6084 87.5268 55.5456 86.3552C56.0628 85.7227 56.4916 84.7783 56.8364 83.5177H61.8758C61.4338 86.1815 60.3109 88.3508 58.5073 90.0213L58.5029 90.0257Z" fill="white"/>
<path d="M81.6435 81.2281V91.8477H76.834V80.845C76.834 79.8695 76.6704 79.0855 76.3388 78.4886C75.91 77.6467 75.0922 77.2279 73.8943 77.2279C72.6963 77.2279 71.7061 77.6467 71.0607 78.4796C70.4153 79.3171 70.097 80.5065 70.097 82.0566V91.8477H65.4023V67.4725H70.097V76.1188C70.7778 75.0675 71.569 74.3369 72.4664 73.9227C73.3638 73.5084 74.3098 73.299 75.3 73.299C76.414 73.299 77.4219 73.4906 78.3325 73.8781C79.2387 74.2657 79.9858 74.8581 80.5738 75.6555C81.0689 76.3326 81.3739 77.023 81.48 77.7402C81.5905 78.4529 81.6435 79.6155 81.6435 81.2325V81.2281Z" fill="white"/>
<path d="M86.7139 75.7178C87.9605 74.1276 90.0956 73.3302 93.1237 73.3302C95.0953 73.3302 96.8458 73.7222 98.3753 74.5062C99.9049 75.2902 100.67 76.7735 100.67 78.9518V87.2461C100.67 87.8207 100.683 88.5201 100.701 89.3353C100.732 89.9545 100.829 90.3732 100.983 90.5959C101.138 90.8186 101.368 91.0013 101.678 91.1438V91.8432H96.5541C96.4126 91.4779 96.3109 91.1349 96.2579 90.8142C96.2048 90.4935 96.1606 90.1282 96.1253 89.7184C95.4754 90.4266 94.7284 91.028 93.8796 91.5269C92.8673 92.1149 91.718 92.4089 90.4448 92.4089C88.8136 92.4089 87.4698 91.9412 86.4044 91.0057C85.3391 90.0703 84.8086 88.7473 84.8086 87.0323C84.8086 84.8095 85.6618 83.197 87.3681 82.2036C88.3053 81.6601 89.6801 81.2726 91.4969 81.041L93.0972 80.8405C93.968 80.7292 94.5913 80.5911 94.9627 80.4262C95.6346 80.1367 95.9705 79.6913 95.9705 79.081C95.9705 78.3415 95.7142 77.8293 95.2014 77.5442C94.6886 77.2591 93.9371 77.121 92.9469 77.121C91.8329 77.121 91.046 77.3972 90.5863 77.9495C90.2547 78.3593 90.0337 78.9117 89.9276 79.6111H85.3833C85.4805 78.0297 85.9226 76.729 86.705 75.7089L86.7139 75.7178ZM90.2194 88.431C90.657 88.7963 91.2008 88.9789 91.8373 88.9789C92.8496 88.9789 93.7824 88.6805 94.6355 88.0836C95.4887 87.4867 95.9352 86.3953 95.9661 84.8139V83.0544C95.67 83.2415 95.3693 83.393 95.0643 83.5088C94.7593 83.6246 94.3438 83.7315 93.8177 83.834L92.7612 84.0344C91.771 84.2126 91.0593 84.4264 90.6305 84.6803C89.9055 85.1124 89.5386 85.7806 89.5386 86.6893C89.5386 87.4956 89.7641 88.0791 90.215 88.431H90.2194Z" fill="white"/>
<path d="M109.697 67.2409V71.6063H104.922V67.2409H109.697ZM109.697 73.7623V91.8477H104.922V73.7623H109.697Z" fill="white"/>
<path d="M122.729 77.2635C121.133 77.2635 120.037 77.9451 119.44 79.3037C119.131 80.0209 118.976 80.943 118.976 82.0566V91.8476H114.281V73.7935H118.826V76.4305C119.431 75.4995 120.006 74.8314 120.545 74.4216C121.513 73.691 122.742 73.3257 124.228 73.3257C126.089 73.3257 127.614 73.8157 128.794 74.7957C129.979 75.7757 130.571 77.3972 130.571 79.6645V91.8432H125.748V80.8405C125.748 79.8872 125.62 79.1612 125.368 78.6489C124.904 77.7179 124.024 77.2546 122.725 77.2546L122.729 77.2635Z" fill="white"/>
</svg>
