<svg width="200" height="50" viewBox="0 0 200 50" fill="none" xmlns="http://www.w3.org/2000/svg">
<path fill-rule="evenodd" clip-rule="evenodd" d="M36.2364 41.8009C35.658 41.6066 35.1154 41.2812 34.658 40.8203L31.6177 37.7567L30.7568 36.8891L29.8958 37.7567L28.6761 38.9858L27.5147 40.1561L25.4116 42.2753L27.3622 44.2409L28.2501 45.1356L29.3129 46.2065C30.833 47.7383 32.676 48.755 34.6221 49.2566C35.0167 49.3605 35.4203 49.4418 35.8239 49.5006C39.3529 50.0247 43.0838 48.9267 45.7832 46.2065C48.4872 43.4818 49.5769 39.7268 49.0522 36.1707C48.9939 35.764 48.9132 35.3618 48.8101 34.9597C48.3078 32.9941 47.2989 31.1369 45.7832 29.6096L44.7205 28.5387C40.0659 23.8484 35.4113 19.1581 30.7568 14.4678L28.6761 16.5644L27.5147 17.7347L25.4116 19.854C30.3891 24.8696 35.4248 29.944 40.4381 34.9958C40.8955 35.4567 41.2184 36.0035 41.4112 36.5864C41.5367 36.9659 41.604 37.3591 41.6219 37.7567C41.6623 38.8638 41.2677 39.9844 40.4426 40.8203C39.6175 41.6517 38.5009 42.0494 37.4023 42.0087C37.0077 41.9952 36.6176 41.9229 36.2409 41.7963L36.2364 41.8009Z" fill="#23CAD7"/>
<path fill-rule="evenodd" clip-rule="evenodd" d="M17.56 37.7567L14.5197 40.8203C14.0623 41.2812 13.5197 41.6065 12.9413 41.8008C12.5646 41.9273 12.1745 41.9951 11.7799 42.0132C10.6812 42.0539 9.56916 41.6562 8.73959 40.8248C7.9145 39.9934 7.51989 38.8682 7.56025 37.7612C7.5737 37.3635 7.64545 36.9704 7.771 36.5909C8.26426 35.0997 10.6364 33.0934 11.7843 31.9367L12.6453 31.0691L11.7843 30.2015L10.5646 28.9725L9.40325 27.8022L7.30017 25.6829C4.55585 28.4483 1.3676 31.042 0.372109 34.9642C0.268972 35.3618 0.188257 35.7685 0.129963 36.1751C-0.390202 39.7313 0.699454 43.4908 3.39893 46.211C6.10289 48.9357 9.82924 50.0337 13.3583 49.505C13.7619 49.4463 14.161 49.365 14.5601 49.261C16.5107 48.755 18.3537 47.7383 19.8693 46.211L20.9321 45.1401L21.8199 44.2454C26.1786 39.8533 30.5372 35.4612 34.8958 31.0691L32.8151 28.9725L31.6537 27.8022L29.5507 25.6829L28.6807 26.5595C25.0127 30.2558 21.2729 34.0243 17.5645 37.7612L17.56 37.7567Z" fill="black"/>
<path fill-rule="evenodd" clip-rule="evenodd" d="M34.6582 8.88272C35.1156 8.42182 35.6582 8.09648 36.2367 7.90218C36.6133 7.77566 37.0035 7.70788 37.3981 7.6898C38.4967 7.64914 39.6088 8.04677 40.4384 8.8782C41.2634 9.70962 41.6581 10.8348 41.6177 11.9418C41.6042 12.3395 41.5325 12.7326 41.4069 13.1121C41.2141 13.695 40.8913 14.2418 40.4339 14.7027L37.3936 17.7663L36.5326 18.6339C38.3129 20.4278 40.0976 22.2262 41.8778 24.0201C43.1782 22.7097 44.4786 21.3993 45.779 20.0889C47.2991 18.5571 48.3081 16.6999 48.8058 14.7388C48.909 14.3412 48.9897 13.9345 49.048 13.5279C49.5681 9.9717 48.4785 6.21222 45.779 3.49202C43.0795 0.771811 39.3532 -0.326211 35.8241 0.197947C35.4206 0.256689 35.0215 0.338024 34.6224 0.441952C32.6718 0.948037 30.8288 1.96472 29.3131 3.49202L28.2504 4.56293C23.5958 9.25324 18.9412 13.9436 14.2866 18.6339L16.3673 20.7305L17.5287 21.9008L19.6318 24.0201L20.5017 23.1435C22.8155 20.8119 25.1652 18.4441 27.515 16.0763C29.896 13.677 32.2771 11.2776 34.6582 8.8782V8.88272Z" fill="black"/>
<path fill-rule="evenodd" clip-rule="evenodd" d="M18.421 35.2353L20.5017 33.1386L21.6631 31.9683L23.7661 29.8491L22.8962 28.9725C18.1789 24.2189 13.4615 19.4653 8.73966 14.7072C8.28227 14.2463 7.95941 13.6996 7.76659 13.1167C7.64103 12.7371 7.57377 12.344 7.55583 11.9463C7.51548 10.8393 7.91008 9.71865 8.73517 8.88271C8.74863 8.86916 8.76208 8.8556 8.77553 8.84204C8.78898 8.82849 8.80244 8.81493 8.81589 8.8059C8.82934 8.79234 8.84279 8.77878 8.85625 8.76975C8.8697 8.75619 8.88315 8.74715 8.8966 8.7336C8.91006 8.72004 8.92351 8.711 8.93696 8.69745C8.95041 8.68389 8.96387 8.67486 8.97732 8.6613C8.99077 8.64774 9.00422 8.63871 9.01768 8.62515C9.03113 8.6116 9.04458 8.60256 9.05803 8.589C9.07149 8.57545 9.08494 8.56641 9.09839 8.55737C9.11184 8.54833 9.1253 8.53478 9.13875 8.52574C9.1522 8.5167 9.16565 8.50315 9.18359 8.49411C9.19704 8.48507 9.2105 8.47152 9.22843 8.46248C9.24189 8.45344 9.25534 8.43989 9.27327 8.43085C9.28673 8.42181 9.30466 8.40826 9.31812 8.39922C9.33157 8.39018 9.34951 8.38115 9.36296 8.36759C9.37641 8.35855 9.39435 8.34952 9.4078 8.34048C9.42125 8.33144 9.43919 8.3224 9.45264 8.31337C9.46609 8.30433 9.48403 8.29529 9.49748 8.28626C9.51094 8.27722 9.52887 8.26818 9.54233 8.25914C9.55578 8.25011 9.57371 8.24107 9.58717 8.23203C9.58717 8.23203 9.61856 8.21396 9.63201 8.20492C9.64546 8.19588 9.6634 8.18685 9.67685 8.17781C9.6903 8.16877 9.70824 8.15973 9.72169 8.15521C9.73515 8.14618 9.75308 8.13714 9.76653 8.13262C9.77999 8.12359 9.79792 8.11907 9.81138 8.11003C9.81138 8.11003 9.84277 8.09647 9.8607 8.08744C9.87864 8.0784 9.89209 8.07388 9.91003 8.06484C9.91003 8.06484 9.94142 8.05129 9.95935 8.04225C9.95935 8.04225 9.99074 8.02869 10.0087 8.01966C10.0266 8.01062 10.0401 8.0061 10.058 8.00158C10.0759 7.99706 10.0894 7.98803 10.1073 7.98351C10.1073 7.98351 10.1387 7.96995 10.1567 7.96543C10.1567 7.96543 10.188 7.95188 10.206 7.94736C10.206 7.94736 10.2374 7.9338 10.2553 7.92928C10.2732 7.92477 10.2867 7.91573 10.3046 7.91121C10.3226 7.90669 10.336 7.90217 10.354 7.89314C10.3719 7.88862 10.3854 7.8841 10.4033 7.87958C10.4212 7.87506 10.4347 7.87054 10.4526 7.86602C10.4706 7.86151 10.484 7.85699 10.5019 7.85247C10.5019 7.85247 10.5333 7.84343 10.5513 7.83891C10.5692 7.83891 10.5827 7.82988 10.6006 7.82536C10.6006 7.82536 10.632 7.81632 10.6499 7.8118C10.6499 7.8118 10.6813 7.80276 10.6992 7.79825C10.7172 7.79825 10.7351 7.78921 10.7486 7.78921C10.7486 7.78921 10.7844 7.78017 10.7979 7.78017C10.8158 7.78017 10.8338 7.77565 10.8472 7.77113C10.8652 7.77113 10.8831 7.76661 10.8965 7.7621C10.9145 7.7621 10.9324 7.75758 10.9459 7.75306C10.9459 7.75306 10.9817 7.74854 10.9952 7.74402C10.9952 7.74402 11.0311 7.7395 11.0445 7.73498C11.0625 7.73498 11.0804 7.73047 11.0939 7.73047C11.0939 7.73047 11.1297 7.73047 11.1432 7.72595C11.1611 7.72595 11.1791 7.72595 11.1925 7.72143C11.2104 7.72143 11.2284 7.72143 11.2418 7.71691C11.2598 7.71691 11.2777 7.71691 11.2912 7.71691C11.3091 7.71691 11.327 7.71691 11.3405 7.71691C11.3405 7.71691 11.3764 7.71691 11.3898 7.71691C11.4077 7.71691 11.4257 7.71691 11.4391 7.71691C11.4571 7.71691 11.475 7.71691 11.4885 7.71691C11.5064 7.71691 11.5243 7.71691 11.5378 7.71691C11.5378 7.71691 11.5737 7.71691 11.5871 7.71691C11.605 7.71691 11.623 7.71691 11.6364 7.71691C11.6544 7.71691 11.6723 7.71691 11.6858 7.71691C11.7037 7.71691 11.7216 7.71691 11.7351 7.71691C12.1297 7.73047 12.5198 7.80276 12.8965 7.92928C13.475 8.12358 14.0175 8.44892 14.4749 8.90982L17.5152 11.9734L18.3762 12.841L19.2371 11.9734L20.4568 10.7444L21.6182 9.57406L23.7213 7.45483C22.4209 6.14443 21.1205 4.83404 19.8201 3.52364C18.2999 1.99183 16.4569 0.975141 14.5108 0.473576C14.1162 0.369648 13.7126 0.288313 13.309 0.229571C9.82931 -0.326219 6.09848 0.771804 3.399 3.49653C0.69504 6.21673 -0.394615 9.97622 0.125549 13.5324C0.183844 13.939 0.264559 14.3412 0.367695 14.7434C0.869923 16.7089 1.87886 18.5661 3.39452 20.0934L4.45727 21.1643C9.11184 25.8546 13.7664 30.5449 18.421 35.2353Z" fill="black"/>
<path d="M78.2261 29.7903V12.4343H83.3874V29.7045C83.3874 31.8147 83.0242 33.4865 82.2978 34.7201C81.0691 36.8077 78.8494 37.8515 75.6433 37.8515C72.4371 37.8515 70.2847 37.0065 69.1905 35.3166C68.0964 33.6266 67.5493 31.3266 67.5493 28.4076V27.8338H72.4281V28.4076C72.4729 30.328 72.6837 31.6746 73.0559 32.4563C73.4326 33.238 74.2307 33.6266 75.4594 33.6266C76.6881 33.6266 77.4818 33.2019 77.8719 32.3478C78.1051 31.8418 78.2217 30.9923 78.2217 29.7903H78.2261Z" fill="black"/>
<path d="M99.8258 34.6569C99.781 34.7111 99.6689 34.8828 99.4895 35.163C99.3101 35.4432 99.0994 35.6917 98.8527 35.904C98.1039 36.5773 97.3819 37.0382 96.6824 37.2867C95.9829 37.5353 95.1667 37.6573 94.2251 37.6573C91.5211 37.6573 89.7005 36.6812 88.7633 34.7292C88.2387 33.6538 87.9741 32.0632 87.9741 29.9666V18.9096H92.8664V29.9666C92.8664 31.0104 92.9874 31.7966 93.2341 32.3208C93.669 33.2516 94.5255 33.717 95.799 33.717C97.4313 33.717 98.5478 33.0528 99.1487 31.7288C99.4626 31.0104 99.6195 30.0615 99.6195 28.8821V18.9005H104.462V37.2461H99.8213V34.6524L99.8258 34.6569Z" fill="black"/>
<path d="M126.894 35.3979C125.051 37.0924 122.693 37.9419 119.823 37.9419C116.271 37.9419 113.478 36.7987 111.446 34.5078C109.415 32.2078 108.397 29.0538 108.397 25.0458C108.397 20.7124 109.554 17.3777 111.863 15.0326C113.877 12.9901 116.433 11.9689 119.54 11.9689C123.697 11.9689 126.733 13.3381 128.656 16.0764C129.719 17.6127 130.289 19.158 130.365 20.7034H125.204C124.867 19.515 124.437 18.6158 123.912 18.0103C122.975 16.9349 121.585 16.3927 119.737 16.3927C117.89 16.3927 116.379 17.1518 115.298 18.6746C114.217 20.1973 113.675 22.3482 113.675 25.1271C113.675 27.9061 114.249 29.9937 115.392 31.3809C116.536 32.7681 117.993 33.4594 119.755 33.4594C121.518 33.4594 122.944 32.863 123.894 31.6746C124.419 31.033 124.854 30.075 125.204 28.7962H130.316C129.867 31.4984 128.728 33.6989 126.899 35.3934L126.894 35.3979Z" fill="black"/>
<path d="M150.368 26.4737V37.246H145.489V26.0851C145.489 25.0955 145.323 24.3002 144.987 23.6947C144.552 22.8407 143.722 22.416 142.507 22.416C141.292 22.416 140.288 22.8407 139.633 23.6857C138.978 24.5352 138.655 25.7417 138.655 27.3141V37.246H133.893V12.5202H138.655V21.2908C139.346 20.2244 140.149 19.4834 141.059 19.0632C141.969 18.6429 142.929 18.4305 143.933 18.4305C145.063 18.4305 146.086 18.6248 147.009 19.018C147.929 19.4111 148.686 20.0121 149.283 20.8209C149.785 21.5077 150.094 22.2081 150.202 22.9356C150.314 23.6586 150.368 24.8379 150.368 26.4782V26.4737Z" fill="black"/>
<path d="M155.511 20.8841C156.775 19.271 158.941 18.4622 162.013 18.4622C164.013 18.4622 165.789 18.8598 167.34 19.6551C168.892 20.4503 169.667 21.955 169.667 24.1646V32.5783C169.667 33.1612 169.681 33.8706 169.699 34.6975C169.73 35.3256 169.829 35.7504 169.986 35.9763C170.143 36.2022 170.376 36.3875 170.69 36.5321V37.2415H165.493C165.349 36.871 165.246 36.523 165.192 36.1977C165.138 35.8724 165.094 35.5018 165.058 35.0861C164.398 35.8046 163.641 36.4146 162.78 36.9207C161.753 37.5171 160.587 37.8154 159.295 37.8154C157.641 37.8154 156.278 37.3409 155.197 36.392C154.116 35.4431 153.578 34.1011 153.578 32.3614C153.578 30.1066 154.444 28.4709 156.174 27.4632C157.125 26.912 158.52 26.5188 160.363 26.2839L161.986 26.0805C162.869 25.9676 163.502 25.8275 163.878 25.6603C164.56 25.3666 164.901 24.9147 164.901 24.2957C164.901 23.5456 164.641 23.026 164.12 22.7368C163.6 22.4476 162.838 22.3075 161.834 22.3075C160.703 22.3075 159.905 22.5876 159.439 23.148C159.103 23.5637 158.878 24.124 158.771 24.8334H154.161C154.26 23.2293 154.708 21.9099 155.502 20.8751L155.511 20.8841ZM159.067 33.7802C159.511 34.1508 160.062 34.336 160.708 34.336C161.735 34.336 162.681 34.0333 163.546 33.4278C164.412 32.8223 164.865 31.7152 164.896 30.1111V28.3263C164.596 28.5161 164.291 28.6697 163.981 28.7872C163.672 28.9047 163.251 29.0131 162.717 29.117L161.645 29.3204C160.641 29.5011 159.919 29.718 159.484 29.9756C158.748 30.4139 158.376 31.0917 158.376 32.0135C158.376 32.8313 158.605 33.4233 159.062 33.7802H159.067Z" fill="black"/>
<path d="M178.824 12.2853V16.7135H173.981V12.2853H178.824ZM178.824 18.9005V37.2461H173.981V18.9005H178.824Z" fill="black"/>
<path d="M192.044 22.4521C190.426 22.4521 189.313 23.1434 188.708 24.5216C188.394 25.2491 188.237 26.1845 188.237 27.3141V37.246H183.475V18.9321H188.085V21.6071C188.699 20.6627 189.282 19.9849 189.829 19.5692C190.811 18.8282 192.058 18.4576 193.565 18.4576C195.452 18.4576 196.999 18.9547 198.197 19.9488C199.398 20.9429 199.999 22.5877 199.999 24.8876V37.2415H195.107V26.0805C195.107 25.1136 194.977 24.377 194.721 23.8574C194.251 22.913 193.358 22.4431 192.04 22.4431L192.044 22.4521Z" fill="black"/>
</svg>
