<svg width="504" height="147" viewBox="0 0 504 147" fill="none" xmlns="http://www.w3.org/2000/svg">
<rect width="504" height="147" fill="black"/>
<path fill-rule="evenodd" clip-rule="evenodd" d="M188.237 90.7299C187.658 90.5356 187.116 90.2103 186.658 89.7494L183.618 86.6858L182.757 85.8182L181.896 86.6858L180.677 87.9148L179.515 89.0852L177.412 91.2044L179.363 93.17L180.251 94.0647L181.313 95.1356C182.833 96.6674 184.676 97.6841 186.623 98.1856C187.017 98.2896 187.421 98.3709 187.824 98.4296C191.353 98.9538 195.084 97.8558 197.784 95.1356C200.488 92.4109 201.577 88.6559 201.053 85.0997C200.994 84.6931 200.914 84.2909 200.811 83.8888C200.308 81.9232 199.299 80.066 197.784 78.5387L196.721 77.4678C192.066 72.7775 187.412 68.0872 182.757 63.3969L180.677 65.4935L179.515 66.6638L177.412 68.783C182.39 73.7987 187.425 78.8731 192.439 83.9249C192.896 84.3858 193.219 84.9326 193.412 85.5155C193.537 85.895 193.604 86.2881 193.622 86.6858C193.663 87.7928 193.268 88.9134 192.443 89.7494C191.618 90.5808 190.501 90.9785 189.403 90.9378C189.008 90.9242 188.618 90.8519 188.241 90.7254L188.237 90.7299Z" fill="#23CAD7"/>
<path fill-rule="evenodd" clip-rule="evenodd" d="M169.56 86.6858L166.52 89.7494C166.063 90.2103 165.52 90.5356 164.942 90.7299C164.565 90.8565 164.175 90.9242 163.78 90.9423C162.682 90.983 161.57 90.5854 160.74 89.7539C159.915 88.9225 159.52 87.7974 159.561 86.6903C159.574 86.2927 159.646 85.8996 159.771 85.52C160.265 84.0288 162.637 82.0226 163.785 80.8658L164.646 79.9982L163.785 79.1307L162.565 77.9016L161.404 76.7313L159.301 74.6121C156.556 77.3775 153.368 79.9711 152.373 83.8933C152.269 84.2909 152.189 84.6976 152.13 85.1043C151.61 88.6604 152.7 92.4199 155.399 95.1401C158.103 97.8648 161.83 98.9629 165.359 98.4342C165.762 98.3754 166.161 98.2941 166.561 98.1902C168.511 97.6841 170.354 96.6674 171.87 95.1401L172.933 94.0692L173.82 93.1745C178.179 88.7824 182.538 84.3903 186.896 79.9982L184.816 77.9016L183.654 76.7313L181.551 74.6121L180.681 75.4887C177.013 79.1849 173.273 82.9534 169.565 86.6903L169.56 86.6858Z" fill="white"/>
<path fill-rule="evenodd" clip-rule="evenodd" d="M186.659 57.8118C187.116 57.3509 187.659 57.0256 188.237 56.8313C188.614 56.7047 189.004 56.637 189.399 56.6189C190.497 56.5782 191.609 56.9759 192.439 57.8073C193.264 58.6387 193.659 59.7638 193.618 60.8709C193.605 61.2685 193.533 61.6617 193.407 62.0412C193.215 62.6241 192.892 63.1709 192.434 63.6318L189.394 66.6954L188.533 67.563C190.313 69.3568 192.098 71.1553 193.878 72.9491C195.179 71.6387 196.479 70.3283 197.779 69.018C199.3 67.4861 200.309 65.629 200.806 63.6679C200.909 63.2703 200.99 62.8636 201.048 62.4569C201.569 58.9008 200.479 55.1413 197.779 52.4211C195.08 49.7009 191.354 48.6029 187.825 49.127C187.421 49.1858 187.022 49.2671 186.623 49.371C184.672 49.8771 182.829 50.8938 181.314 52.4211L180.251 53.492C175.596 58.1823 170.942 62.8726 166.287 67.563L168.368 69.6596L169.529 70.8299L171.632 72.9491L172.502 72.0725C174.816 69.7409 177.166 67.3732 179.515 65.0054C181.897 62.606 184.278 60.2067 186.659 57.8073V57.8118Z" fill="white"/>
<path fill-rule="evenodd" clip-rule="evenodd" d="M170.421 84.1643L172.502 82.0677L173.664 80.8974L175.767 78.7781L174.897 77.9015C170.179 73.148 165.462 68.3944 160.74 63.6363C160.283 63.1754 159.96 62.6286 159.767 62.0457C159.642 61.6662 159.574 61.273 159.556 60.8754C159.516 59.7683 159.911 58.6477 160.736 57.8118C160.749 57.7982 160.763 57.7847 160.776 57.7711C160.789 57.7576 160.803 57.744 160.816 57.735C160.83 57.7214 160.843 57.7079 160.857 57.6988C160.87 57.6853 160.884 57.6762 160.897 57.6627C160.911 57.6491 160.924 57.6401 160.937 57.6265C160.951 57.613 160.964 57.6039 160.978 57.5904C160.991 57.5768 161.005 57.5678 161.018 57.5542C161.032 57.5407 161.045 57.5316 161.059 57.5181C161.072 57.5045 161.085 57.4955 161.099 57.4864C161.112 57.4774 161.126 57.4639 161.139 57.4548C161.153 57.4458 161.166 57.4322 161.184 57.4232C161.198 57.4142 161.211 57.4006 161.229 57.3916C161.242 57.3825 161.256 57.369 161.274 57.3599C161.287 57.3509 161.305 57.3373 161.319 57.3283C161.332 57.3193 161.35 57.3102 161.363 57.2967C161.377 57.2876 161.395 57.2786 161.408 57.2696C161.422 57.2605 161.44 57.2515 161.453 57.2424C161.467 57.2334 161.485 57.2244 161.498 57.2153C161.511 57.2063 161.529 57.1973 161.543 57.1882C161.556 57.1792 161.574 57.1701 161.588 57.1611C161.588 57.1611 161.619 57.143 161.632 57.134C161.646 57.125 161.664 57.1159 161.677 57.1069C161.691 57.0978 161.709 57.0888 161.722 57.0843C161.736 57.0753 161.754 57.0662 161.767 57.0617C161.78 57.0527 161.798 57.0481 161.812 57.0391C161.812 57.0391 161.843 57.0255 161.861 57.0165C161.879 57.0075 161.893 57.003 161.911 56.9939C161.911 56.9939 161.942 56.9804 161.96 56.9713C161.96 56.9713 161.991 56.9578 162.009 56.9487C162.027 56.9397 162.041 56.9352 162.058 56.9307C162.076 56.9261 162.09 56.9171 162.108 56.9126C162.108 56.9126 162.139 56.899 162.157 56.8945C162.157 56.8945 162.189 56.881 162.206 56.8764C162.206 56.8764 162.238 56.8629 162.256 56.8584C162.274 56.8538 162.287 56.8448 162.305 56.8403C162.323 56.8358 162.337 56.8312 162.354 56.8222C162.372 56.8177 162.386 56.8132 162.404 56.8087C162.422 56.8041 162.435 56.7996 162.453 56.7951C162.471 56.7906 162.484 56.7861 162.502 56.7815C162.502 56.7815 162.534 56.7725 162.552 56.768C162.57 56.768 162.583 56.759 162.601 56.7544C162.601 56.7544 162.632 56.7454 162.65 56.7409C162.65 56.7409 162.682 56.7318 162.7 56.7273C162.718 56.7273 162.736 56.7183 162.749 56.7183C162.749 56.7183 162.785 56.7092 162.798 56.7092C162.816 56.7092 162.834 56.7047 162.848 56.7002C162.866 56.7002 162.884 56.6957 162.897 56.6912C162.915 56.6912 162.933 56.6867 162.946 56.6821C162.946 56.6821 162.982 56.6776 162.996 56.6731C162.996 56.6731 163.032 56.6686 163.045 56.6641C163.063 56.6641 163.081 56.6595 163.094 56.6595C163.094 56.6595 163.13 56.6595 163.144 56.655C163.162 56.655 163.18 56.655 163.193 56.6505C163.211 56.6505 163.229 56.6505 163.242 56.646C163.26 56.646 163.278 56.646 163.292 56.646C163.31 56.646 163.328 56.646 163.341 56.646C163.341 56.646 163.377 56.646 163.39 56.646C163.408 56.646 163.426 56.646 163.44 56.646C163.458 56.646 163.475 56.646 163.489 56.646C163.507 56.646 163.525 56.646 163.538 56.646C163.538 56.646 163.574 56.646 163.588 56.646C163.606 56.646 163.623 56.646 163.637 56.646C163.655 56.646 163.673 56.646 163.686 56.646C163.704 56.646 163.722 56.646 163.736 56.646C164.13 56.6595 164.52 56.7318 164.897 56.8584C165.475 57.0527 166.018 57.378 166.475 57.8389L169.516 60.9025L170.377 61.7701L171.238 60.9025L172.457 59.6735L173.619 58.5031L175.722 56.3839C174.421 55.0735 173.121 53.7631 171.821 52.4527C170.3 50.9209 168.457 49.9042 166.511 49.4027C166.117 49.2987 165.713 49.2174 165.31 49.1586C161.83 48.6029 158.099 49.7009 155.399 52.4256C152.696 55.1458 151.606 58.9053 152.126 62.4614C152.184 62.8681 152.265 63.2703 152.368 63.6724C152.87 65.638 153.879 67.4952 155.395 69.0225L156.458 70.0934C161.112 74.7837 165.767 79.474 170.421 84.1643Z" fill="white"/>
<path d="M230.227 78.7195V61.3635H235.388V78.6337C235.388 80.7439 235.025 82.4157 234.298 83.6493C233.07 85.7369 230.85 86.7807 227.644 86.7807C224.438 86.7807 222.285 85.9357 221.191 84.2458C220.097 82.5558 219.55 80.2558 219.55 77.3368V76.763H224.429V77.3368C224.473 79.2572 224.684 80.6038 225.056 81.3855C225.433 82.1672 226.231 82.5558 227.46 82.5558C228.689 82.5558 229.482 82.1311 229.872 81.277C230.106 80.771 230.222 79.9215 230.222 78.7195H230.227Z" fill="white"/>
<path d="M251.826 83.586C251.781 83.6402 251.669 83.8119 251.49 84.0921C251.311 84.3722 251.1 84.6208 250.853 84.8331C250.104 85.5064 249.382 85.9673 248.683 86.2158C247.983 86.4643 247.167 86.5863 246.226 86.5863C243.522 86.5863 241.701 85.6103 240.764 83.6583C240.239 82.5829 239.975 80.9923 239.975 78.8957V67.8386H244.867V78.8957C244.867 79.9395 244.988 80.7257 245.235 81.2499C245.67 82.1807 246.526 82.6461 247.8 82.6461C249.432 82.6461 250.548 81.9819 251.149 80.6579C251.463 79.9395 251.62 78.9906 251.62 77.8112V67.8296H256.463V86.1751H251.822V83.5815L251.826 83.586Z" fill="white"/>
<path d="M278.895 84.3271C277.052 86.0215 274.693 86.871 271.823 86.871C268.272 86.871 265.478 85.7278 263.447 83.4369C261.415 81.1369 260.397 77.9829 260.397 73.9749C260.397 69.6416 261.554 66.3068 263.864 63.9617C265.877 61.9193 268.433 60.8981 271.541 60.8981C275.697 60.8981 278.733 62.2672 280.657 65.0055C281.72 66.5418 282.289 68.0872 282.365 69.6325H277.204C276.868 68.4442 276.437 67.5449 275.913 66.9395C274.976 65.864 273.585 65.3218 271.738 65.3218C269.89 65.3218 268.379 66.0809 267.299 67.6037C266.218 69.1265 265.675 71.2773 265.675 74.0563C265.675 76.8352 266.249 78.9228 267.393 80.31C268.536 81.6972 269.994 82.3886 271.756 82.3886C273.518 82.3886 274.944 81.7921 275.895 80.6037C276.419 79.9621 276.854 79.0041 277.204 77.7254H282.316C281.868 80.4275 280.729 82.6281 278.899 84.3226L278.895 84.3271Z" fill="white"/>
<path d="M302.368 75.4028V86.1752H297.49V75.0142C297.49 74.0246 297.324 73.2294 296.987 72.6239C296.552 71.7698 295.723 71.3451 294.508 71.3451C293.292 71.3451 292.288 71.7698 291.633 72.6148C290.979 73.4643 290.656 74.6708 290.656 76.2433V86.1752H285.894V61.4493H290.656V70.22C291.346 69.1536 292.149 68.4125 293.059 67.9923C293.97 67.5721 294.929 67.3597 295.934 67.3597C297.064 67.3597 298.086 67.554 299.01 67.9471C299.929 68.3402 300.687 68.9412 301.283 69.75C301.785 70.4369 302.095 71.1372 302.203 71.8647C302.315 72.5877 302.368 73.7671 302.368 75.4073V75.4028Z" fill="white"/>
<path d="M307.511 69.8133C308.776 68.2002 310.942 67.3914 314.013 67.3914C316.013 67.3914 317.789 67.789 319.341 68.5843C320.892 69.3795 321.668 70.8842 321.668 73.0938V81.5075C321.668 82.0904 321.681 82.7998 321.699 83.6267C321.731 84.2548 321.829 84.6796 321.986 84.9055C322.143 85.1314 322.376 85.3167 322.69 85.4613V86.1707H317.493C317.35 85.8002 317.246 85.4522 317.193 85.1269C317.139 84.8016 317.094 84.431 317.058 84.0153C316.399 84.7338 315.641 85.3438 314.78 85.8499C313.753 86.4463 312.587 86.7446 311.296 86.7446C309.641 86.7446 308.278 86.2701 307.197 85.3212C306.117 84.3723 305.579 83.0303 305.579 81.2906C305.579 79.0358 306.444 77.4001 308.175 76.3924C309.126 75.8412 310.52 75.448 312.363 75.2131L313.986 75.0097C314.87 74.8968 315.502 74.7567 315.879 74.5895C316.56 74.2958 316.901 73.8439 316.901 73.2249C316.901 72.4748 316.641 71.9552 316.121 71.666C315.601 71.3768 314.838 71.2367 313.834 71.2367C312.704 71.2367 311.906 71.5168 311.439 72.0772C311.103 72.4929 310.879 73.0532 310.771 73.7626H306.162C306.26 72.1585 306.709 70.8391 307.502 69.8043L307.511 69.8133ZM311.067 82.7094C311.511 83.08 312.063 83.2652 312.708 83.2652C313.735 83.2652 314.682 82.9625 315.547 82.357C316.412 81.7515 316.865 80.6444 316.897 79.0403V77.2555C316.596 77.4453 316.291 77.5989 315.982 77.7164C315.673 77.8339 315.251 77.9423 314.717 78.0462L313.646 78.2496C312.641 78.4303 311.919 78.6472 311.484 78.9048C310.749 79.3431 310.377 80.0209 310.377 80.9427C310.377 81.7605 310.605 82.3525 311.063 82.7094H311.067Z" fill="white"/>
<path d="M330.825 61.2144V65.6426H325.982V61.2144H330.825ZM330.825 67.8296V86.1752H325.982V67.8296H330.825Z" fill="white"/>
<path d="M344.045 71.3813C342.426 71.3813 341.314 72.0726 340.709 73.4508C340.395 74.1783 340.238 75.1137 340.238 76.2433V86.1752H335.476V67.8613H340.085V70.5363C340.7 69.5919 341.283 68.9141 341.83 68.4984C342.812 67.7574 344.058 67.3868 345.565 67.3868C347.453 67.3868 349 67.8839 350.197 68.878C351.399 69.8721 352 71.5169 352 73.8168V86.1707H347.108V75.0097C347.108 74.0428 346.978 73.3062 346.722 72.7866C346.251 71.8422 345.359 71.3723 344.04 71.3723L344.045 71.3813Z" fill="white"/>
</svg>
