<svg width="504" height="147" viewBox="0 0 504 147" fill="none" xmlns="http://www.w3.org/2000/svg">
<rect width="504" height="147" fill="black"/>
<path fill-rule="evenodd" clip-rule="evenodd" d="M263.975 68.2731C263.403 68.0809 262.866 67.7591 262.414 67.3033L259.407 64.2732L258.555 63.4151L257.704 64.2732L256.497 65.4888L255.349 66.6463L253.269 68.7424L255.198 70.6864L256.076 71.5713L257.127 72.6305C258.631 74.1455 260.453 75.1511 262.378 75.6472C262.769 75.75 263.168 75.8304 263.567 75.8885C267.057 76.4069 270.747 75.3209 273.417 72.6305C276.092 69.9356 277.169 66.2218 276.65 62.7045C276.593 62.3023 276.513 61.9046 276.411 61.5068C275.914 59.5627 274.916 57.7259 273.417 56.2154L272.366 55.1562C267.762 50.5172 263.159 45.8782 258.555 41.2393L256.497 43.3129L255.349 44.4704L253.269 46.5665C258.192 51.5272 263.172 56.5461 268.131 61.5426C268.583 61.9984 268.902 62.5392 269.093 63.1157C269.217 63.4911 269.284 63.8799 269.301 64.2732C269.341 65.3682 268.951 66.4765 268.135 67.3033C267.319 68.1256 266.215 68.5189 265.128 68.4787C264.738 68.4653 264.352 68.3938 263.979 68.2686L263.975 68.2731Z" fill="#23CAD7"/>
<path fill-rule="evenodd" clip-rule="evenodd" d="M245.503 64.2732L242.496 67.3033C242.044 67.7591 241.507 68.0809 240.935 68.2731C240.562 68.3982 240.176 68.4653 239.786 68.4831C238.7 68.5234 237.6 68.1301 236.779 67.3078C235.963 66.4854 235.573 65.3726 235.613 64.2777C235.626 63.8844 235.697 63.4956 235.821 63.1202C236.309 61.6454 238.655 59.6611 239.791 58.517L240.642 57.6589L239.791 56.8008L238.584 55.5852L237.436 54.4277L235.356 52.3317C232.641 55.0668 229.488 57.6321 228.503 61.5113C228.401 61.9046 228.321 62.3068 228.264 62.709C227.749 66.2262 228.827 69.9446 231.497 72.635C234.171 75.3299 237.857 76.4159 241.347 75.893C241.747 75.8349 242.141 75.7544 242.536 75.6516C244.465 75.1511 246.288 74.1455 247.787 72.635L248.838 71.5758L249.716 70.6909C254.027 66.3469 258.338 62.0029 262.649 57.6589L260.591 55.5852L259.443 54.4277L257.362 52.3317L256.502 53.1987C252.874 56.8544 249.175 60.5817 245.507 64.2777L245.503 64.2732Z" fill="white"/>
<path fill-rule="evenodd" clip-rule="evenodd" d="M262.414 35.7153C262.866 35.2595 263.403 34.9377 263.975 34.7455C264.347 34.6204 264.733 34.5533 265.124 34.5355C266.21 34.4952 267.31 34.8885 268.131 35.7109C268.947 36.5332 269.337 37.646 269.297 38.7409C269.284 39.1342 269.213 39.523 269.089 39.8984C268.898 40.475 268.579 41.0157 268.126 41.4716L265.119 44.5017L264.268 45.3597C266.028 47.134 267.793 48.9127 269.554 50.687C270.84 49.3909 272.127 48.0948 273.413 46.7988C274.916 45.2838 275.914 43.4469 276.406 41.5073C276.508 41.114 276.588 40.7118 276.646 40.3096C277.16 36.7924 276.083 33.0741 273.413 30.3836C270.743 27.6932 267.057 26.6072 263.567 27.1256C263.168 27.1837 262.773 27.2642 262.378 27.367C260.449 27.8675 258.626 28.8731 257.127 30.3836L256.076 31.4428C251.472 36.0818 246.869 40.7208 242.265 45.3597L244.323 47.4334L245.472 48.5909L247.552 50.687L248.412 49.8199C250.701 47.5139 253.025 45.172 255.349 42.8302C257.704 40.4571 260.059 38.084 262.414 35.7109V35.7153Z" fill="white"/>
<path fill-rule="evenodd" clip-rule="evenodd" d="M246.355 61.7793L248.412 59.7056L249.561 58.5481L251.641 56.4521L250.781 55.5851C246.115 50.8835 241.449 46.182 236.779 41.476C236.327 41.0201 236.008 40.4794 235.817 39.9029C235.693 39.5275 235.626 39.1386 235.608 38.7454C235.568 37.6504 235.959 36.5421 236.775 35.7153C236.788 35.7019 236.801 35.6885 236.815 35.6751C236.828 35.6616 236.841 35.6482 236.855 35.6393C236.868 35.6259 236.881 35.6125 236.895 35.6035C236.908 35.5901 236.921 35.5812 236.934 35.5678C236.948 35.5544 236.961 35.5454 236.974 35.532C236.988 35.5186 237.001 35.5097 237.014 35.4963C237.028 35.4829 237.041 35.4739 237.054 35.4605C237.068 35.4471 237.081 35.4382 237.094 35.4248C237.107 35.4114 237.121 35.4024 237.134 35.3935C237.147 35.3846 237.161 35.3712 237.174 35.3622C237.187 35.3533 237.201 35.3399 237.218 35.3309C237.232 35.322 237.245 35.3086 237.263 35.2996C237.276 35.2907 237.289 35.2773 237.307 35.2684C237.32 35.2594 237.338 35.246 237.351 35.2371C237.365 35.2281 237.382 35.2192 237.396 35.2058C237.409 35.1969 237.427 35.1879 237.44 35.179C237.453 35.17 237.471 35.1611 237.484 35.1522C237.498 35.1432 237.515 35.1343 237.529 35.1253C237.542 35.1164 237.56 35.1075 237.573 35.0985C237.586 35.0896 237.604 35.0807 237.617 35.0717C237.617 35.0717 237.649 35.0538 237.662 35.0449C237.675 35.036 237.693 35.027 237.706 35.0181C237.719 35.0092 237.737 35.0002 237.751 34.9957C237.764 34.9868 237.782 34.9779 237.795 34.9734C237.808 34.9645 237.826 34.96 237.839 34.9511C237.839 34.9511 237.87 34.9376 237.888 34.9287C237.906 34.9198 237.919 34.9153 237.937 34.9064C237.937 34.9064 237.968 34.893 237.986 34.884C237.986 34.884 238.017 34.8706 238.034 34.8617C238.052 34.8527 238.065 34.8483 238.083 34.8438C238.101 34.8393 238.114 34.8304 238.132 34.8259C238.132 34.8259 238.163 34.8125 238.181 34.808C238.181 34.808 238.212 34.7946 238.229 34.7902C238.229 34.7902 238.261 34.7768 238.278 34.7723C238.296 34.7678 238.309 34.7589 238.327 34.7544C238.345 34.7499 238.358 34.7455 238.376 34.7365C238.394 34.7321 238.407 34.7276 238.425 34.7231C238.442 34.7187 238.456 34.7142 238.473 34.7097C238.491 34.7052 238.504 34.7008 238.522 34.6963C238.522 34.6963 238.553 34.6874 238.571 34.6829C238.589 34.6829 238.602 34.674 238.62 34.6695C238.62 34.6695 238.651 34.6606 238.669 34.6561C238.669 34.6561 238.7 34.6472 238.717 34.6427C238.735 34.6427 238.753 34.6337 238.766 34.6337C238.766 34.6337 238.802 34.6248 238.815 34.6248C238.833 34.6248 238.85 34.6203 238.864 34.6159C238.881 34.6159 238.899 34.6114 238.913 34.6069C238.93 34.6069 238.948 34.6025 238.961 34.598C238.961 34.598 238.997 34.5935 239.01 34.5891C239.01 34.5891 239.046 34.5846 239.059 34.5801C239.077 34.5801 239.094 34.5756 239.108 34.5756C239.108 34.5756 239.143 34.5756 239.156 34.5712C239.174 34.5712 239.192 34.5712 239.205 34.5667C239.223 34.5667 239.241 34.5667 239.254 34.5622C239.272 34.5622 239.289 34.5622 239.303 34.5622C239.321 34.5622 239.338 34.5622 239.352 34.5622C239.352 34.5622 239.387 34.5622 239.4 34.5622C239.418 34.5622 239.436 34.5622 239.449 34.5622C239.467 34.5622 239.485 34.5622 239.498 34.5622C239.516 34.5622 239.533 34.5622 239.547 34.5622C239.547 34.5622 239.582 34.5622 239.596 34.5622C239.613 34.5622 239.631 34.5622 239.644 34.5622C239.662 34.5622 239.68 34.5622 239.693 34.5622C239.711 34.5622 239.729 34.5622 239.742 34.5622C240.132 34.5756 240.518 34.6472 240.891 34.7723C241.463 34.9645 241.999 35.2862 242.452 35.7421L245.459 38.7722L246.31 39.6302L247.162 38.7722L248.368 37.5566L249.517 36.3991L251.597 34.303C250.311 33.007 249.025 31.7109 247.738 30.4149C246.235 28.8998 244.412 27.8943 242.487 27.3982C242.097 27.2954 241.698 27.215 241.299 27.1569C237.857 26.6072 234.167 27.6932 231.497 30.3881C228.823 33.0785 227.745 36.7968 228.259 40.314C228.317 40.7162 228.397 41.114 228.499 41.5118C228.996 43.4558 229.994 45.2926 231.493 46.8032L232.544 47.8624C237.147 52.5014 241.751 57.1403 246.355 61.7793Z" fill="white"/>
<path d="M197.56 111.775V94.6091H202.665V111.69C202.665 113.777 202.305 115.431 201.587 116.651C200.372 118.716 198.176 119.748 195.005 119.748C191.834 119.748 189.705 118.912 188.623 117.241C187.541 115.569 187 113.295 187 110.408V109.84H191.825V110.408C191.87 112.307 192.078 113.639 192.446 114.412C192.819 115.185 193.608 115.569 194.823 115.569C196.039 115.569 196.824 115.149 197.21 114.305C197.44 113.804 197.556 112.964 197.556 111.775H197.56Z" fill="white"/>
<path d="M218.923 116.588C218.878 116.642 218.767 116.812 218.59 117.089C218.413 117.366 218.204 117.612 217.96 117.822C217.22 118.488 216.505 118.944 215.814 119.189C215.122 119.435 214.315 119.556 213.383 119.556C210.709 119.556 208.908 118.591 207.981 116.66C207.462 115.596 207.201 114.023 207.201 111.949V101.013H212.039V111.949C212.039 112.982 212.159 113.759 212.403 114.278C212.833 115.199 213.68 115.659 214.94 115.659C216.554 115.659 217.659 115.002 218.253 113.692C218.563 112.982 218.719 112.043 218.719 110.877V101.005H223.509V119.149H218.918V116.584L218.923 116.588Z" fill="white"/>
<path d="M245.695 117.321C243.872 118.997 241.539 119.837 238.701 119.837C235.188 119.837 232.425 118.707 230.416 116.441C228.407 114.166 227.4 111.047 227.4 107.083C227.4 102.797 228.545 99.4984 230.829 97.1789C232.82 95.1588 235.348 94.1488 238.422 94.1488C242.533 94.1488 245.535 95.503 247.438 98.2113C248.489 99.7308 249.052 101.259 249.128 102.788H244.023C243.69 101.612 243.265 100.723 242.746 100.124C241.819 99.0604 240.444 98.5241 238.617 98.5241C236.789 98.5241 235.295 99.2749 234.226 100.781C233.157 102.287 232.62 104.414 232.62 107.163C232.62 109.911 233.188 111.976 234.319 113.348C235.45 114.72 236.891 115.404 238.634 115.404C240.377 115.404 241.788 114.814 242.728 113.639C243.247 113.004 243.677 112.057 244.023 110.792H249.079C248.636 113.464 247.509 115.641 245.7 117.317L245.695 117.321Z" fill="white"/>
<path d="M268.912 108.495V119.149H264.086V108.11C264.086 107.132 263.922 106.345 263.59 105.746C263.159 104.902 262.339 104.482 261.137 104.482C259.935 104.482 258.942 104.902 258.294 105.737C257.647 106.578 257.327 107.771 257.327 109.326V119.149H252.617V94.6941H257.327V103.369C258.01 102.314 258.804 101.581 259.704 101.165C260.605 100.75 261.554 100.54 262.547 100.54C263.665 100.54 264.676 100.732 265.59 101.121C266.499 101.51 267.249 102.104 267.838 102.904C268.335 103.583 268.641 104.276 268.748 104.995C268.858 105.711 268.912 106.877 268.912 108.499V108.495Z" fill="white"/>
<path d="M273.998 102.966C275.249 101.371 277.391 100.571 280.429 100.571C282.407 100.571 284.164 100.964 285.698 101.751C287.233 102.537 288 104.026 288 106.211V114.533C288 115.109 288.013 115.811 288.031 116.629C288.062 117.25 288.16 117.67 288.315 117.893C288.47 118.117 288.701 118.3 289.011 118.443V119.145H283.871C283.729 118.778 283.627 118.434 283.574 118.112C283.521 117.791 283.476 117.424 283.441 117.013C282.789 117.723 282.039 118.327 281.188 118.827C280.172 119.417 279.019 119.712 277.742 119.712C276.105 119.712 274.757 119.243 273.688 118.304C272.619 117.366 272.087 116.039 272.087 114.318C272.087 112.088 272.943 110.47 274.655 109.473C275.595 108.928 276.974 108.539 278.797 108.307L280.403 108.106C281.276 107.994 281.902 107.856 282.274 107.69C282.948 107.4 283.286 106.953 283.286 106.341C283.286 105.599 283.028 105.085 282.514 104.799C281.999 104.513 281.245 104.374 280.252 104.374C279.134 104.374 278.345 104.651 277.884 105.205C277.551 105.617 277.329 106.171 277.223 106.872H272.663C272.761 105.286 273.205 103.981 273.99 102.957L273.998 102.966ZM277.515 115.721C277.955 116.088 278.5 116.271 279.139 116.271C280.154 116.271 281.09 115.972 281.946 115.373C282.802 114.774 283.25 113.679 283.281 112.092V110.327C282.984 110.515 282.682 110.667 282.376 110.783C282.07 110.899 281.653 111.006 281.126 111.109L280.066 111.31C279.072 111.489 278.358 111.704 277.928 111.958C277.201 112.392 276.832 113.062 276.832 113.974C276.832 114.783 277.059 115.368 277.511 115.721H277.515Z" fill="white"/>
<path d="M297.057 94.4617V98.8414H292.267V94.4617H297.057ZM297.057 101.004V119.149H292.267V101.004H297.057Z" fill="white"/>
<path d="M310.132 104.517C308.531 104.517 307.431 105.201 306.832 106.564C306.522 107.284 306.366 108.209 306.366 109.326V119.149H301.656V101.036H306.216V103.682C306.823 102.747 307.4 102.077 307.941 101.666C308.912 100.933 310.145 100.567 311.635 100.567C313.502 100.567 315.032 101.058 316.217 102.041C317.405 103.025 318 104.651 318 106.926V119.145H313.161V108.106C313.161 107.15 313.032 106.421 312.779 105.907C312.314 104.973 311.431 104.508 310.127 104.508L310.132 104.517Z" fill="white"/>
</svg>
