<svg width="131" height="93" viewBox="0 0 131 93" fill="none" xmlns="http://www.w3.org/2000/svg">
<path fill-rule="evenodd" clip-rule="evenodd" d="M76.9749 41.273C76.4027 41.0809 75.8661 40.7591 75.4137 40.3032L72.4067 37.2732L71.5552 36.4151L70.7036 37.2732L69.4973 38.4888L68.3486 39.6463L66.2686 41.7423L68.1978 43.6864L69.076 44.5713L70.1271 45.6304C71.6306 47.1455 73.4534 48.151 75.3782 48.6471C75.7685 48.7499 76.1677 48.8304 76.5668 48.8885C80.0572 49.4069 83.7472 48.3209 86.4172 45.6304C89.0915 42.9356 90.1692 39.2217 89.6503 35.7045C89.5927 35.3023 89.5128 34.9045 89.4108 34.5068C88.9141 32.5627 87.9162 30.7259 86.4172 29.2153L85.366 28.1561C80.7624 23.5171 76.1588 18.8782 71.5552 14.2392L69.4973 16.3129L68.3486 17.4704L66.2686 19.5664C71.1915 24.5272 76.1721 29.546 81.1305 34.5425C81.5829 34.9984 81.9022 35.5391 82.0929 36.1156C82.2171 36.4911 82.2837 36.8799 82.3014 37.2732C82.3413 38.3681 81.951 39.4764 81.135 40.3032C80.3189 41.1256 79.2146 41.5188 78.128 41.4786C77.7377 41.4652 77.3518 41.3937 76.9793 41.2686L76.9749 41.273Z" fill="#23CAD7"/>
<path fill-rule="evenodd" clip-rule="evenodd" d="M58.503 37.2732L55.496 40.3032C55.0437 40.7591 54.507 41.0809 53.9349 41.273C53.5623 41.3982 53.1765 41.4652 52.7862 41.4831C51.6996 41.5233 50.5997 41.13 49.7792 40.3077C48.9631 39.4854 48.5729 38.3726 48.6128 37.2776C48.6261 36.8843 48.697 36.4955 48.8212 36.1201C49.3091 34.6453 51.6552 32.661 52.7906 31.5169L53.6422 30.6588L52.7906 29.8007L51.5843 28.5851L50.4356 27.4276L48.3555 25.3316C45.6413 28.0667 42.4879 30.632 41.5033 34.5112C41.4013 34.9045 41.3215 35.3067 41.2638 35.709C40.7494 39.2262 41.8271 42.9445 44.497 45.6349C47.1714 48.3298 50.8569 49.4158 54.3473 48.8929C54.7465 48.8348 55.1412 48.7544 55.536 48.6516C57.4652 48.151 59.288 47.1455 60.7871 45.6349L61.8382 44.5757L62.7164 43.6908C67.0273 39.3468 71.3382 35.0028 75.6491 30.6588L73.5912 28.5851L72.4425 27.4276L70.3624 25.3316L69.502 26.1986C65.8741 29.8544 62.1753 33.5816 58.5075 37.2776L58.503 37.2732Z" fill="black"/>
<path fill-rule="evenodd" clip-rule="evenodd" d="M75.4137 8.71532C75.8661 8.25947 76.4028 7.93769 76.9749 7.74552C77.3474 7.62038 77.7333 7.55335 78.1236 7.53547C79.2102 7.49525 80.3101 7.88853 81.1306 8.71086C81.9466 9.53318 82.3369 10.646 82.297 11.7409C82.2837 12.1342 82.2127 12.523 82.0885 12.8984C81.8978 13.475 81.5785 14.0157 81.1261 14.4716L78.1191 17.5017L77.2676 18.3597C79.0283 20.134 80.7935 21.9127 82.5542 23.687C83.8404 22.3909 85.1266 21.0948 86.4128 19.7988C87.9162 18.2838 88.9141 16.4469 89.4064 14.5073C89.5084 14.114 89.5883 13.7118 89.6459 13.3096C90.1604 9.79239 89.0827 6.07406 86.4128 3.38364C83.7428 0.693215 80.0573 -0.392787 76.5669 0.125634C76.1677 0.183733 75.773 0.264177 75.3783 0.366968C73.449 0.867511 71.6262 1.87307 70.1271 3.38364L69.076 4.44282C64.4724 9.08179 59.8688 13.7208 55.2651 18.3597L57.323 20.4334L58.4717 21.5909L60.5518 23.687L61.4122 22.8199C63.7007 20.5139 66.0247 18.172 68.3486 15.8302C70.7037 13.4571 73.0587 11.084 75.4137 8.71086V8.71532Z" fill="black"/>
<path fill-rule="evenodd" clip-rule="evenodd" d="M59.3546 34.7793L61.4125 32.7056L62.5611 31.5481L64.6412 29.4521L63.7808 28.5851C59.1151 23.8835 54.4494 19.182 49.7792 14.476C49.3268 14.0201 49.0075 13.4794 48.8168 12.9029C48.6926 12.5275 48.6261 12.1386 48.6084 11.7454C48.5684 10.6504 48.9587 9.54207 49.7748 8.71528C49.7881 8.70187 49.8014 8.68846 49.8147 8.67505C49.828 8.66165 49.8413 8.64824 49.8546 8.6393C49.8679 8.62589 49.8812 8.61249 49.8945 8.60355C49.9078 8.59014 49.9211 8.5812 49.9345 8.56779C49.9478 8.55439 49.9611 8.54545 49.9744 8.53204C49.9877 8.51863 50.001 8.5097 50.0143 8.49629C50.0276 8.48288 50.0409 8.47394 50.0542 8.46054C50.0675 8.44713 50.0808 8.43819 50.0941 8.42478C50.1074 8.41137 50.1207 8.40244 50.134 8.3935C50.1473 8.38456 50.1606 8.37115 50.1739 8.36221C50.1873 8.35328 50.2006 8.33987 50.2183 8.33093C50.2316 8.32199 50.2449 8.30858 50.2627 8.29965C50.276 8.29071 50.2893 8.2773 50.307 8.26836C50.3203 8.25942 50.338 8.24602 50.3514 8.23708C50.3647 8.22814 50.3824 8.2192 50.3957 8.20579C50.409 8.19686 50.4267 8.18792 50.4401 8.17898C50.4534 8.17004 50.4711 8.1611 50.4844 8.15216C50.4977 8.14323 50.5155 8.13429 50.5288 8.12535C50.5421 8.11641 50.5598 8.10747 50.5731 8.09853C50.5864 8.0896 50.6042 8.08066 50.6175 8.07172C50.6175 8.07172 50.6485 8.05384 50.6618 8.0449C50.6751 8.03597 50.6929 8.02703 50.7062 8.01809C50.7195 8.00915 50.7372 8.00021 50.7505 7.99574C50.7638 7.98681 50.7816 7.97787 50.7949 7.9734C50.8082 7.96446 50.8259 7.95999 50.8392 7.95105C50.8392 7.95105 50.8703 7.93765 50.888 7.92871C50.9057 7.91977 50.919 7.9153 50.9368 7.90636C50.9368 7.90636 50.9678 7.89295 50.9856 7.88402C50.9856 7.88402 51.0166 7.87061 51.0344 7.86167C51.0521 7.85273 51.0654 7.84826 51.0831 7.84379C51.1009 7.83932 51.1142 7.83039 51.1319 7.82592C51.1319 7.82592 51.163 7.81251 51.1807 7.80804C51.1807 7.80804 51.2118 7.79463 51.2295 7.79016C51.2295 7.79016 51.2605 7.77676 51.2783 7.77229C51.296 7.76782 51.3093 7.75888 51.3271 7.75441C51.3448 7.74994 51.3581 7.74547 51.3759 7.73653C51.3936 7.73206 51.4069 7.7276 51.4246 7.72313C51.4424 7.71866 51.4557 7.71419 51.4734 7.70972C51.4912 7.70525 51.5045 7.70078 51.5222 7.69631C51.5222 7.69631 51.5533 7.68737 51.571 7.6829C51.5887 7.6829 51.602 7.67397 51.6198 7.6695C51.6198 7.6695 51.6508 7.66056 51.6686 7.65609C51.6686 7.65609 51.6996 7.64715 51.7174 7.64268C51.7351 7.64268 51.7528 7.63374 51.7661 7.63374C51.7661 7.63374 51.8016 7.62481 51.8149 7.62481C51.8327 7.62481 51.8504 7.62034 51.8637 7.61587C51.8815 7.61587 51.8992 7.6114 51.9125 7.60693C51.9302 7.60693 51.948 7.60246 51.9613 7.59799C51.9613 7.59799 51.9968 7.59352 52.0101 7.58905C52.0101 7.58905 52.0456 7.58458 52.0589 7.58011C52.0766 7.58011 52.0943 7.57565 52.1076 7.57565C52.1076 7.57565 52.1431 7.57565 52.1564 7.57118C52.1742 7.57118 52.1919 7.57118 52.2052 7.56671C52.223 7.56671 52.2407 7.56671 52.254 7.56224C52.2717 7.56224 52.2895 7.56224 52.3028 7.56224C52.3205 7.56224 52.3383 7.56224 52.3516 7.56224C52.3516 7.56224 52.3871 7.56224 52.4004 7.56224C52.4181 7.56224 52.4358 7.56224 52.4491 7.56224C52.4669 7.56224 52.4846 7.56224 52.4979 7.56224C52.5157 7.56224 52.5334 7.56224 52.5467 7.56224C52.5467 7.56224 52.5822 7.56224 52.5955 7.56224C52.6132 7.56224 52.631 7.56224 52.6443 7.56224C52.662 7.56224 52.6798 7.56224 52.6931 7.56224C52.7108 7.56224 52.7286 7.56224 52.7419 7.56224C53.1322 7.57564 53.518 7.64715 53.8906 7.77229C54.4627 7.96446 54.9993 8.28624 55.4517 8.74209L58.4587 11.7722L59.3102 12.6302L60.1618 11.7722L61.3681 10.5566L62.5168 9.39906L64.5969 7.30303C63.3107 6.00698 62.0245 4.71092 60.7383 3.41487C59.2348 1.89983 57.412 0.894277 55.4872 0.398202C55.0969 0.295412 54.6977 0.214967 54.2986 0.156869C50.857 -0.392836 47.167 0.693165 44.497 3.38806C41.8227 6.07848 40.745 9.79681 41.2594 13.314C41.3171 13.7162 41.3969 14.114 41.4989 14.5118C41.9956 16.4558 42.9935 18.2926 44.4926 19.8032L45.5437 20.8624C50.1473 25.5014 54.751 30.1403 59.3546 34.7793Z" fill="black"/>
<path d="M10.5599 84.7751V67.6091H15.6647V84.6902C15.6647 86.7773 15.3055 88.4309 14.587 89.6509C13.3718 91.7157 11.1764 92.7481 8.00533 92.7481C4.83425 92.7481 2.7054 91.9123 1.62324 90.2409C0.541082 88.5694 0 86.2946 0 83.4075V82.84H4.82538V83.4075C4.86973 85.3069 5.07817 86.6387 5.44629 87.4119C5.81883 88.1851 6.60828 88.5694 7.82349 88.5694C9.03871 88.5694 9.82372 88.1493 10.2096 87.3046C10.4402 86.8041 10.5555 85.9639 10.5555 84.7751H10.5599Z" fill="black"/>
<path d="M31.9226 89.5884C31.8783 89.642 31.7674 89.8119 31.59 90.089C31.4126 90.366 31.2041 90.6119 30.9602 90.8219C30.2195 91.4878 29.5055 91.9437 28.8136 92.1895C28.1217 92.4353 27.3146 92.5559 26.3832 92.5559C23.7088 92.5559 21.9082 91.5906 20.9813 89.6599C20.4624 88.5963 20.2007 87.0231 20.2007 84.9494V74.0135H25.0394V84.9494C25.0394 85.9818 25.1591 86.7595 25.403 87.2779C25.8332 88.1985 26.6803 88.6588 27.9399 88.6588C29.5543 88.6588 30.6586 88.0019 31.2529 86.6924C31.5634 85.9818 31.7186 85.0433 31.7186 83.8769V74.0045H36.5085V92.1492H31.9182V89.5839L31.9226 89.5884Z" fill="black"/>
<path d="M58.6951 90.3213C56.8723 91.9972 54.5394 92.8374 51.701 92.8374C48.1884 92.8374 45.4253 91.7067 43.4163 89.4409C41.4072 87.1661 40.4004 84.0466 40.4004 80.0825C40.4004 75.7966 41.5446 72.4984 43.8287 70.1789C45.8201 68.1588 48.3481 67.1488 51.4216 67.1488C55.5329 67.1488 58.5355 68.503 60.4381 71.2113C61.4892 72.7308 62.0525 74.2592 62.1279 75.7877H57.0231C56.6905 74.6123 56.2647 73.7229 55.7458 73.124C54.8189 72.0604 53.444 71.5241 51.6167 71.5241C49.7895 71.5241 48.2948 72.2749 47.226 73.781C46.1571 75.2871 45.6205 77.4144 45.6205 80.1629C45.6205 82.9115 46.1882 84.9762 47.3191 86.3482C48.4501 87.7203 49.8915 88.404 51.6345 88.404C53.3775 88.404 54.7878 87.8141 55.7281 86.6387C56.247 86.0041 56.6772 85.0567 57.0231 83.7919H62.0791C61.6356 86.4644 60.5091 88.6409 58.6996 90.3168L58.6951 90.3213Z" fill="black"/>
<path d="M81.9117 81.4948V92.1492H77.0863V81.1105C77.0863 80.1317 76.9222 79.3451 76.5896 78.7463C76.1594 77.9016 75.3389 77.4815 74.137 77.4815C72.9351 77.4815 71.9416 77.9016 71.2941 78.7373C70.6466 79.5775 70.3272 80.7708 70.3272 82.3261V92.1492H65.6172V67.6941H70.3272V76.3687C71.0103 75.314 71.8041 74.581 72.7045 74.1654C73.6048 73.7498 74.5539 73.5397 75.5474 73.5397C76.665 73.5397 77.6762 73.7319 78.5898 74.1207C79.499 74.5095 80.2485 75.1039 80.8384 75.9039C81.3351 76.5832 81.6412 77.2759 81.7476 77.9955C81.8585 78.7105 81.9117 79.877 81.9117 81.4993V81.4948Z" fill="black"/>
<path d="M86.9984 75.9664C88.2491 74.371 90.3913 73.571 93.4293 73.571C95.4074 73.571 97.1637 73.9643 98.6982 74.7508C100.233 75.5374 101 77.0256 101 79.211V87.5326C101 88.1091 101.013 88.8108 101.031 89.6286C101.062 90.2498 101.16 90.6699 101.315 90.8934C101.47 91.1168 101.701 91.3001 102.011 91.4431V92.1447H96.8709C96.729 91.7783 96.627 91.4341 96.5738 91.1124C96.5206 90.7906 96.4762 90.4241 96.4407 90.013C95.7888 90.7236 95.0393 91.3269 94.1877 91.8274C93.1721 92.4174 92.019 92.7123 90.7416 92.7123C89.1051 92.7123 87.7568 92.2431 86.688 91.3045C85.6191 90.366 85.0869 89.0387 85.0869 87.3181C85.0869 85.088 85.9429 83.4701 87.6548 82.4735C88.5951 81.9283 89.9744 81.5395 91.7972 81.3071L93.4027 81.106C94.2764 80.9942 94.9018 80.8557 95.2743 80.6903C95.9484 80.3998 96.2855 79.9529 96.2855 79.3406C96.2855 78.5988 96.0283 78.0848 95.5138 77.7988C94.9993 77.5128 94.2454 77.3742 93.2519 77.3742C92.1343 77.3742 91.3448 77.6513 90.8836 78.2055C90.5509 78.6166 90.3292 79.1708 90.2228 79.8725H85.6635C85.7611 78.2859 86.2046 76.9809 86.9896 75.9575L86.9984 75.9664ZM90.5155 88.7214C90.9545 89.0878 91.5001 89.2711 92.1387 89.2711C93.1543 89.2711 94.0901 88.9716 94.9461 88.3728C95.8021 87.7739 96.25 86.679 96.2811 85.0924V83.3271C95.9839 83.5148 95.6823 83.6668 95.3763 83.783C95.0703 83.8992 94.6534 84.0064 94.1256 84.1092L93.0656 84.3103C92.0722 84.4891 91.3581 84.7036 90.9279 84.9584C90.2006 85.3919 89.8325 86.0622 89.8325 86.9739C89.8325 87.7829 90.0587 88.3683 90.511 88.7214H90.5155Z" fill="black"/>
<path d="M110.057 67.4617V71.8414H105.267V67.4617H110.057ZM110.057 74.0045V92.1492H105.267V74.0045H110.057Z" fill="black"/>
<path d="M123.132 77.5172C121.531 77.5172 120.431 78.201 119.832 79.5641C119.522 80.2836 119.366 81.2087 119.366 82.326V92.1492H114.656V74.0357H119.216V76.6815C119.823 75.7474 120.4 75.077 120.941 74.6659C121.912 73.9329 123.145 73.5665 124.635 73.5665C126.502 73.5665 128.032 74.0581 129.217 75.0413C130.405 76.0245 131 77.6513 131 79.9261V92.1447H126.161V81.1059C126.161 80.1495 126.032 79.421 125.779 78.9071C125.314 77.973 124.431 77.5083 123.127 77.5083L123.132 77.5172Z" fill="black"/>
</svg>
