<svg width="200" height="57" viewBox="0 0 200 57" fill="none" xmlns="http://www.w3.org/2000/svg">
<g clip-path="url(#clip0_7589_362)">
<path fill-rule="evenodd" clip-rule="evenodd" d="M35.7225 45.2089C35.1523 45.0174 34.6174 44.6967 34.1665 44.2423L31.1693 41.2221L30.3206 40.3669L29.4718 41.2221L28.2694 42.4338L27.1245 43.5875L25.0513 45.6766L26.9742 47.6144L27.8495 48.4964L28.8972 49.5521C30.3957 51.0622 32.2126 52.0644 34.1311 52.5589C34.5201 52.6613 34.918 52.7415 35.3158 52.7994C38.7948 53.3161 42.4728 52.2337 45.1339 49.5521C47.7995 46.866 48.8737 43.1643 48.3565 39.6586C48.2991 39.2577 48.2195 38.8612 48.1178 38.4648C47.6227 36.5271 46.6281 34.6963 45.1339 33.1906L44.0863 32.1349C39.4977 27.5111 34.9091 22.8873 30.3206 18.2635L28.2694 20.3304L27.1245 21.4842L25.0513 23.5733C29.9581 28.5178 34.9224 33.5203 39.8646 38.5004C40.3155 38.9548 40.6338 39.4938 40.8239 40.0684C40.9477 40.4426 41.014 40.8301 41.0316 41.2221C41.0714 42.3135 40.6824 43.4182 39.869 44.2423C39.0556 45.0619 37.9549 45.4539 36.8719 45.4138C36.4829 45.4005 36.0983 45.3292 35.727 45.2045L35.7225 45.2089Z" fill="#23CAD7"/>
<path fill-rule="evenodd" clip-rule="evenodd" d="M17.3109 41.2221L14.3138 44.2423C13.8629 44.6966 13.328 45.0174 12.7578 45.2089C12.3864 45.3336 12.0018 45.4004 11.6128 45.4183C10.5298 45.4584 9.43348 45.0664 8.61568 44.2467C7.80229 43.4271 7.41328 42.3179 7.45307 41.2266C7.46633 40.8346 7.53706 40.447 7.66083 40.0728C8.1471 38.6029 10.4856 36.625 11.6172 35.4847L12.466 34.6294L11.6172 33.7742L10.4148 32.5625L9.26992 31.4088L7.19667 29.3196C4.49128 32.0458 1.34825 34.6027 0.366886 38.4692C0.265213 38.8612 0.185642 39.2621 0.128175 39.663C-0.384612 43.1687 0.689588 46.8749 3.35077 49.5565C6.01638 52.2426 9.68988 53.325 13.1689 52.8039C13.5667 52.7459 13.9602 52.6658 14.3536 52.5633C16.2765 52.0644 18.0934 51.0621 19.5875 49.5565L20.6352 48.5008L21.5105 47.6188C25.8073 43.289 30.1041 38.9592 34.4009 34.6294L32.3497 32.5625L31.2048 31.4088L29.1316 29.3196L28.274 30.1838C24.6579 33.8276 20.9712 37.5427 17.3154 41.2266L17.3109 41.2221Z" fill="white"/>
<path fill-rule="evenodd" clip-rule="evenodd" d="M34.1666 12.7577C34.6175 12.3034 35.1524 11.9826 35.7227 11.7911C36.094 11.6664 36.4786 11.5996 36.8676 11.5817C37.9507 11.5416 39.047 11.9336 39.8648 12.7533C40.6782 13.5729 41.0672 14.6821 41.0274 15.7734C41.0141 16.1654 40.9434 16.553 40.8196 16.9272C40.6295 17.5018 40.3112 18.0408 39.8603 18.4951L36.8632 21.5153L36.0144 22.3706C37.7694 24.139 39.5288 25.9119 41.2838 27.6804C42.5657 26.3885 43.8477 25.0967 45.1297 23.8049C46.6282 22.2948 47.6229 20.464 48.1136 18.5308C48.2152 18.1388 48.2948 17.7379 48.3523 17.337C48.8651 13.8313 47.7909 10.1251 45.1297 7.44349C42.4685 4.76187 38.795 3.67942 35.316 4.19615C34.9181 4.25405 34.5247 4.33424 34.1313 4.43669C32.2083 4.9356 30.3915 5.93786 28.8973 7.44349L27.8496 8.49921C23.2611 13.123 18.6725 17.7468 14.084 22.3706L16.1351 24.4375L17.2801 25.5912L19.3533 27.6804L20.2109 26.8162C22.4919 24.5177 24.8083 22.1835 27.1247 19.8493C29.472 17.484 31.8193 15.1186 34.1666 12.7533V12.7577Z" fill="white"/>
<path fill-rule="evenodd" clip-rule="evenodd" d="M18.1597 38.7365L20.2108 36.6696L21.3558 35.5159L23.429 33.4267L22.5714 32.5625C17.921 27.8764 13.2705 23.1902 8.61568 18.4996C8.16478 18.0452 7.8465 17.5063 7.65642 16.9316C7.53264 16.5574 7.46633 16.1699 7.44865 15.7779C7.40887 14.6865 7.79788 13.5818 8.61126 12.7577C8.62452 12.7444 8.63779 12.731 8.65105 12.7176C8.66431 12.7043 8.67757 12.6909 8.69083 12.682C8.70409 12.6686 8.71736 12.6553 8.73062 12.6464C8.74388 12.633 8.75714 12.6241 8.7704 12.6107C8.78366 12.5974 8.79693 12.5885 8.81019 12.5751C8.82345 12.5617 8.83671 12.5528 8.84997 12.5395C8.86323 12.5261 8.8765 12.5172 8.88976 12.5038C8.90302 12.4905 8.91628 12.4816 8.92954 12.4682C8.94281 12.4548 8.95607 12.4459 8.96933 12.437C8.98259 12.4281 8.99585 12.4147 9.00911 12.4058C9.02237 12.3969 9.03564 12.3836 9.05332 12.3746C9.06658 12.3657 9.07984 12.3524 9.09753 12.3435C9.11079 12.3346 9.12405 12.3212 9.14173 12.3123C9.15499 12.3034 9.17268 12.29 9.18594 12.2811C9.1992 12.2722 9.21688 12.2633 9.23014 12.2499C9.2434 12.241 9.26109 12.2321 9.27435 12.2232C9.28761 12.2143 9.30529 12.2054 9.31855 12.1965C9.33182 12.1876 9.3495 12.1787 9.36276 12.1697C9.37602 12.1608 9.3937 12.1519 9.40697 12.143C9.42023 12.1341 9.43791 12.1252 9.45117 12.1163C9.45117 12.1163 9.48211 12.0985 9.49538 12.0896C9.50864 12.0807 9.52632 12.0717 9.53958 12.0628C9.55284 12.0539 9.57053 12.045 9.58379 12.0406C9.59705 12.0317 9.61473 12.0227 9.62799 12.0183C9.64126 12.0094 9.65894 12.0049 9.6722 11.996C9.6722 11.996 9.70314 11.9827 9.72083 11.9737C9.73851 11.9648 9.75177 11.9604 9.76945 11.9515C9.76945 11.9515 9.8004 11.9381 9.81808 11.9292C9.81808 11.9292 9.84902 11.9158 9.8667 11.9069C9.88439 11.898 9.89765 11.8936 9.91533 11.8891C9.93301 11.8847 9.94628 11.8757 9.96396 11.8713C9.96396 11.8713 9.9949 11.8579 10.0126 11.8535C10.0126 11.8535 10.0435 11.8401 10.0612 11.8357C10.0612 11.8357 10.0922 11.8223 10.1098 11.8178C10.1275 11.8134 10.1408 11.8045 10.1585 11.8C10.1761 11.7956 10.1894 11.7911 10.2071 11.7822C10.2248 11.7777 10.238 11.7733 10.2557 11.7688C10.2734 11.7644 10.2867 11.7599 10.3043 11.7555C10.322 11.751 10.3353 11.7466 10.353 11.7421C10.353 11.7421 10.3839 11.7332 10.4016 11.7287C10.4193 11.7287 10.4325 11.7198 10.4502 11.7154C10.4502 11.7154 10.4812 11.7065 10.4988 11.702C10.4988 11.702 10.5298 11.6931 10.5475 11.6887C10.5652 11.6887 10.5828 11.6797 10.5961 11.6797C10.5961 11.6797 10.6315 11.6708 10.6447 11.6708C10.6624 11.6708 10.6801 11.6664 10.6934 11.6619C10.711 11.6619 10.7287 11.6575 10.742 11.653C10.7597 11.653 10.7773 11.6486 10.7906 11.6441C10.7906 11.6441 10.826 11.6397 10.8392 11.6352C10.8392 11.6352 10.8746 11.6307 10.8879 11.6263C10.9055 11.6263 10.9232 11.6218 10.9365 11.6218C10.9365 11.6218 10.9718 11.6218 10.9851 11.6174C11.0028 11.6174 11.0205 11.6174 11.0337 11.6129C11.0514 11.6129 11.0691 11.6129 11.0824 11.6085C11.1 11.6085 11.1177 11.6085 11.131 11.6085C11.1487 11.6085 11.1664 11.6085 11.1796 11.6085C11.1796 11.6085 11.215 11.6085 11.2282 11.6085C11.2459 11.6085 11.2636 11.6085 11.2769 11.6085C11.2945 11.6085 11.3122 11.6085 11.3255 11.6085C11.3432 11.6085 11.3609 11.6085 11.3741 11.6085C11.3741 11.6085 11.4095 11.6085 11.4227 11.6085C11.4404 11.6085 11.4581 11.6085 11.4714 11.6085C11.4891 11.6085 11.5067 11.6085 11.52 11.6085C11.5377 11.6085 11.5554 11.6085 11.5686 11.6085C11.9576 11.6218 12.3422 11.6931 12.7136 11.8178C13.2838 12.0094 13.8187 12.3301 14.2696 12.7845L17.2667 15.8046L18.1155 16.6599L18.9642 15.8046L20.1666 14.593L21.3116 13.4393L23.3848 11.3501C22.1029 10.0583 20.8209 8.76649 19.5389 7.47468C18.0403 5.9646 16.2235 4.96233 14.305 4.46788C13.916 4.36543 13.5181 4.28525 13.1202 4.22734C9.68988 3.67943 6.01196 4.76188 3.35078 7.44795C0.685174 10.1296 -0.389025 13.8357 0.123762 17.3414C0.181229 17.7423 0.260799 18.1388 0.362473 18.5352C0.857577 20.473 1.85221 22.3038 3.34636 23.8094L4.39404 24.8651C8.98259 29.4889 13.5711 34.1127 18.1597 38.7365Z" fill="white"/>
<path d="M77.1167 33.3688V16.259H82.2048V33.2841C82.2048 35.3644 81.8467 37.0126 81.1306 38.2287C79.9193 40.2866 77.7312 41.3156 74.5704 41.3156C71.4097 41.3156 69.2879 40.4826 68.2092 38.8166C67.1306 37.1507 66.5913 34.8833 66.5913 32.0057V31.44H71.4009V32.0057C71.4451 33.8989 71.6529 35.2263 72.0198 35.9969C72.3911 36.7676 73.178 37.1507 74.3892 37.1507C75.6004 37.1507 76.3829 36.7319 76.7675 35.89C76.9973 35.3911 77.1123 34.5537 77.1123 33.3688H77.1167Z" fill="white"/>
<path d="M98.4096 38.1663C98.3654 38.2198 98.2549 38.3891 98.0781 38.6652C97.9013 38.9414 97.6935 39.1864 97.4504 39.3958C96.7121 40.0595 96.0004 40.5139 95.3108 40.7589C94.6212 41.0039 93.8167 41.1241 92.8884 41.1241C90.2227 41.1241 88.428 40.1619 87.5041 38.2376C86.9869 37.1774 86.7261 35.6094 86.7261 33.5425V22.6423H91.5489V33.5425C91.5489 34.5715 91.6683 35.3466 91.9114 35.8633C92.3402 36.781 93.1845 37.2398 94.44 37.2398C96.0491 37.2398 97.1498 36.585 97.7421 35.2798C98.0516 34.5715 98.2063 33.6361 98.2063 32.4735V22.6334H102.981V40.7188H98.4052V38.1619L98.4096 38.1663Z" fill="white"/>
<path d="M125.094 38.8968C123.277 40.5673 120.952 41.4047 118.123 41.4047C114.622 41.4047 111.868 40.2777 109.865 38.0193C107.863 35.752 106.859 32.6427 106.859 28.6915C106.859 24.4197 108 21.1322 110.276 18.8203C112.261 16.8069 114.781 15.8002 117.844 15.8002C121.942 15.8002 124.935 17.1499 126.832 19.8493C127.879 21.3639 128.441 22.8873 128.516 24.4108H123.428C123.096 23.2392 122.672 22.3528 122.155 21.7559C121.231 20.6957 119.86 20.1611 118.039 20.1611C116.218 20.1611 114.728 20.9095 113.663 22.4107C112.597 23.9118 112.062 26.0322 112.062 28.7717C112.062 31.5113 112.628 33.5692 113.755 34.9368C114.883 36.3043 116.319 36.9859 118.057 36.9859C119.794 36.9859 121.2 36.3979 122.137 35.2263C122.654 34.5938 123.083 33.6494 123.428 32.3888H128.467C128.025 35.0526 126.902 37.2219 125.099 38.8924L125.094 38.8968Z" fill="white"/>
<path d="M148.235 30.0992V40.7187H143.425V29.7161C143.425 28.7405 143.262 27.9566 142.93 27.3596C142.501 26.5177 141.684 26.099 140.486 26.099C139.288 26.099 138.297 26.5177 137.652 27.3507C137.007 28.1882 136.688 29.3775 136.688 30.9277V40.7187H131.994V16.3436H136.688V24.9898C137.369 23.9386 138.16 23.208 139.058 22.7938C139.955 22.3795 140.901 22.1701 141.891 22.1701C143.005 22.1701 144.013 22.3617 144.924 22.7492C145.83 23.1368 146.577 23.7292 147.165 24.5266C147.66 25.2037 147.965 25.8941 148.071 26.6113C148.182 27.324 148.235 28.4866 148.235 30.1036V30.0992Z" fill="white"/>
<path d="M153.305 24.5889C154.552 22.9987 156.687 22.2013 159.715 22.2013C161.687 22.2013 163.437 22.5933 164.967 23.3773C166.496 24.1613 167.261 25.6446 167.261 27.8229V36.1172C167.261 36.6918 167.274 37.3912 167.292 38.2064C167.323 38.8256 167.42 39.2443 167.575 39.467C167.729 39.6897 167.959 39.8724 168.269 40.0149V40.7143H163.145C163.004 40.349 162.902 40.006 162.849 39.6853C162.796 39.3645 162.752 38.9993 162.717 38.5895C162.067 39.2977 161.32 39.8991 160.471 40.398C159.459 40.986 158.309 41.28 157.036 41.28C155.405 41.28 154.061 40.8123 152.996 39.8768C151.93 38.9414 151.4 37.6184 151.4 35.9034C151.4 33.6806 152.253 32.068 153.959 31.0747C154.897 30.5312 156.271 30.1437 158.088 29.9121L159.688 29.7116C160.559 29.6002 161.183 29.4622 161.554 29.2973C162.226 29.0078 162.562 28.5623 162.562 27.9521C162.562 27.2126 162.305 26.7004 161.793 26.4153C161.28 26.1302 160.528 25.9921 159.538 25.9921C158.424 25.9921 157.637 26.2683 157.178 26.8206C156.846 27.2304 156.625 27.7828 156.519 28.4822H151.975C152.072 26.9008 152.514 25.6001 153.296 24.58L153.305 24.5889ZM156.811 37.3021C157.248 37.6674 157.792 37.85 158.429 37.85C159.441 37.85 160.374 37.5516 161.227 36.9547C162.08 36.3577 162.526 35.2664 162.557 33.685V31.9255C162.261 32.1126 161.961 32.264 161.656 32.3799C161.351 32.4957 160.935 32.6026 160.409 32.705L159.353 32.9055C158.362 33.0837 157.651 33.2975 157.222 33.5514C156.497 33.9835 156.13 34.6517 156.13 35.5604C156.13 36.3667 156.355 36.9502 156.806 37.3021H156.811Z" fill="white"/>
<path d="M176.288 16.112V20.4774H171.514V16.112H176.288ZM176.288 22.6334V40.7188H171.514V22.6334H176.288Z" fill="white"/>
<path d="M189.32 26.1346C187.724 26.1346 186.628 26.8162 186.031 28.1748C185.722 28.892 185.567 29.8141 185.567 30.9277V40.7187H180.873V22.6646H185.417V25.3016C186.023 24.3706 186.597 23.7025 187.137 23.2927C188.105 22.5621 189.334 22.1968 190.819 22.1968C192.68 22.1968 194.205 22.6868 195.385 23.6668C196.57 24.6468 197.162 26.2683 197.162 28.5356V40.7143H192.34V29.7116C192.34 28.7583 192.211 28.0323 191.959 27.52C191.495 26.589 190.616 26.1257 189.316 26.1257L189.32 26.1346Z" fill="white"/>
</g>
<defs>
<clipPath id="clip0_7589_362">
<rect width="200" height="57" fill="white"/>
</clipPath>
</defs>
</svg>
